%MOIN*%
%OFA0B0*%
%FSLAX46Y46*%
%IPPOS*%
%LPD*%
%ADD10O,0.082677165354330714X0.082677165354330714*%
%ADD11R,0.082677165354330714X0.082677165354330714*%
%ADD12C,0.051181102362204731*%
%ADD23O,0.082677165354330714X0.082677165354330714*%
%ADD24R,0.082677165354330714X0.082677165354330714*%
%ADD25C,0.051181102362204731*%
%ADD26O,0.082677165354330714X0.082677165354330714*%
%ADD27R,0.082677165354330714X0.082677165354330714*%
%ADD28C,0.051181102362204731*%
%ADD29O,0.082677165354330714X0.082677165354330714*%
%ADD30R,0.082677165354330714X0.082677165354330714*%
%ADD31C,0.051181102362204731*%
G01*
D10*
X0000059055Y0001102362D02*
X0000590551Y0000133464D03*
X0000590551Y0000233464D03*
X0000590551Y0000333464D03*
X0000590551Y0000433464D03*
X0000590551Y0000533464D03*
X0000590551Y0000633464D03*
X0000590551Y0000733464D03*
X0000590551Y0000833464D03*
X0000590551Y0000933464D03*
D11*
X0000590551Y0001033464D03*
D10*
X0000118110Y0000567322D03*
X0000118110Y0000467322D03*
X0000118110Y0000367322D03*
X0000118110Y0000267322D03*
D11*
X0000118110Y0000167322D03*
D12*
X0000207677Y0000908464D03*
X0000380905Y0000908464D03*
G04 next file*
G04 #@! TF.GenerationSoftware,KiCad,Pcbnew,(5.0.0)*
G04 #@! TF.CreationDate,2018-09-18T20:25:08+02:00*
G04 #@! TF.ProjectId,pcb_relay_main,7063625F72656C61795F6D61696E2E6B,rev?*
G04 #@! TF.SameCoordinates,PXeb14aa0PY7f13bd0*
G04 #@! TF.FileFunction,Soldermask,Bot*
G04 #@! TF.FilePolarity,Negative*
G04 Gerber Fmt 4.6, Leading zero omitted, Abs format (unit mm)*
G04 Created by KiCad (PCBNEW (5.0.0)) date 09/18/18 20:25:08*
G01*
G04 APERTURE LIST*
G04 APERTURE END LIST*
D23*
G04 #@! TO.C,J3*
X0000787401Y0001102362D02*
X0001318897Y0000133464D03*
X0001318897Y0000233464D03*
X0001318897Y0000333464D03*
X0001318897Y0000433464D03*
X0001318897Y0000533464D03*
X0001318897Y0000633464D03*
X0001318897Y0000733464D03*
X0001318897Y0000833464D03*
X0001318897Y0000933464D03*
D24*
X0001318897Y0001033464D03*
G04 #@! TD*
D23*
G04 #@! TO.C,J1*
X0000846456Y0000567322D03*
X0000846456Y0000467322D03*
X0000846456Y0000367322D03*
X0000846456Y0000267322D03*
D24*
X0000846456Y0000167322D03*
G04 #@! TD*
D25*
G04 #@! TO.C,J2*
X0000936023Y0000908464D03*
X0001109251Y0000908464D03*
G04 #@! TD*
G04 next file*
G04 #@! TF.GenerationSoftware,KiCad,Pcbnew,(5.0.0)*
G04 #@! TF.CreationDate,2018-09-18T20:25:08+02:00*
G04 #@! TF.ProjectId,pcb_relay_main,7063625F72656C61795F6D61696E2E6B,rev?*
G04 #@! TF.SameCoordinates,PXeb14aa0PY7f13bd0*
G04 #@! TF.FileFunction,Soldermask,Bot*
G04 #@! TF.FilePolarity,Negative*
G04 Gerber Fmt 4.6, Leading zero omitted, Abs format (unit mm)*
G04 Created by KiCad (PCBNEW (5.0.0)) date 09/18/18 20:25:08*
G01*
G04 APERTURE LIST*
G04 APERTURE END LIST*
D26*
G04 #@! TO.C,J3*
X0000059055Y0002244094D02*
X0000590551Y0001275196D03*
X0000590551Y0001375196D03*
X0000590551Y0001475196D03*
X0000590551Y0001575196D03*
X0000590551Y0001675196D03*
X0000590551Y0001775196D03*
X0000590551Y0001875196D03*
X0000590551Y0001975196D03*
X0000590551Y0002075196D03*
D27*
X0000590551Y0002175196D03*
G04 #@! TD*
D26*
G04 #@! TO.C,J1*
X0000118110Y0001709055D03*
X0000118110Y0001609055D03*
X0000118110Y0001509055D03*
X0000118110Y0001409055D03*
D27*
X0000118110Y0001309055D03*
G04 #@! TD*
D28*
G04 #@! TO.C,J2*
X0000207677Y0002050196D03*
X0000380905Y0002050196D03*
G04 #@! TD*
G04 next file*
G04 #@! TF.GenerationSoftware,KiCad,Pcbnew,(5.0.0)*
G04 #@! TF.CreationDate,2018-09-18T20:25:08+02:00*
G04 #@! TF.ProjectId,pcb_relay_main,7063625F72656C61795F6D61696E2E6B,rev?*
G04 #@! TF.SameCoordinates,PXeb14aa0PY7f13bd0*
G04 #@! TF.FileFunction,Soldermask,Bot*
G04 #@! TF.FilePolarity,Negative*
G04 Gerber Fmt 4.6, Leading zero omitted, Abs format (unit mm)*
G04 Created by KiCad (PCBNEW (5.0.0)) date 09/18/18 20:25:08*
G01*
G04 APERTURE LIST*
G04 APERTURE END LIST*
D29*
G04 #@! TO.C,J3*
X0000787401Y0002244094D02*
X0001318897Y0001275196D03*
X0001318897Y0001375196D03*
X0001318897Y0001475196D03*
X0001318897Y0001575196D03*
X0001318897Y0001675196D03*
X0001318897Y0001775196D03*
X0001318897Y0001875196D03*
X0001318897Y0001975196D03*
X0001318897Y0002075196D03*
D30*
X0001318897Y0002175196D03*
G04 #@! TD*
D29*
G04 #@! TO.C,J1*
X0000846456Y0001709055D03*
X0000846456Y0001609055D03*
X0000846456Y0001509055D03*
X0000846456Y0001409055D03*
D30*
X0000846456Y0001309055D03*
G04 #@! TD*
D31*
G04 #@! TO.C,J2*
X0000936023Y0002050196D03*
X0001109251Y0002050196D03*
G04 #@! TD*
M02*