%MOIN*%
%OFA0B0*%
%FSLAX46Y46*%
%IPPOS*%
%LPD*%
%ADD10O,0.066929133858267723X0.066929133858267723*%
%ADD11R,0.066929133858267723X0.066929133858267723*%
%ADD12C,0.031496062992125991*%
%ADD13C,0.00984251968503937*%
%ADD14C,0.01*%
%ADD25O,0.066929133858267723X0.066929133858267723*%
%ADD26R,0.066929133858267723X0.066929133858267723*%
%ADD27C,0.031496062992125991*%
%ADD28C,0.00984251968503937*%
%ADD29C,0.01*%
%ADD30O,0.066929133858267723X0.066929133858267723*%
%ADD31R,0.066929133858267723X0.066929133858267723*%
%ADD32C,0.031496062992125991*%
%ADD33C,0.00984251968503937*%
%ADD34C,0.01*%
%ADD35O,0.066929133858267723X0.066929133858267723*%
%ADD36R,0.066929133858267723X0.066929133858267723*%
%ADD37C,0.031496062992125991*%
%ADD38C,0.00984251968503937*%
%ADD39C,0.01*%
G01*
D10*
X0000059055Y0001102362D02*
X0000590551Y0000133464D03*
X0000590551Y0000233464D03*
X0000590551Y0000333464D03*
X0000590551Y0000433464D03*
X0000590551Y0000533464D03*
X0000590551Y0000633464D03*
X0000590551Y0000733464D03*
X0000590551Y0000833464D03*
X0000590551Y0000933464D03*
D11*
X0000590551Y0001033464D03*
D10*
X0000118110Y0000567322D03*
X0000118110Y0000467322D03*
X0000118110Y0000367322D03*
X0000118110Y0000267322D03*
D11*
X0000118110Y0000167322D03*
D12*
X0000236220Y0000679133D03*
X0000354330Y0000718503D03*
X0000324803Y0000423228D03*
X0000118110Y0000679133D03*
X0000324803Y0000137795D03*
X0000305118Y0000984251D03*
X0000442913Y0000423228D03*
X0000374015Y0000423228D03*
X0000393700Y0000374015D03*
D13*
X0000236220Y0000679133D02*
X0000213949Y0000679133D01*
X0000213949Y0000679133D02*
X0000118110Y0000679133D01*
X0000275590Y0000718503D02*
X0000236220Y0000679133D01*
X0000354330Y0000718503D02*
X0000275590Y0000718503D01*
X0000298818Y0000567322D02*
X0000427165Y0000438976D01*
X0000427165Y0000438976D02*
X0000442913Y0000423228D01*
X0000118110Y0000567322D02*
X0000298818Y0000567322D01*
X0000118110Y0000467322D02*
X0000329921Y0000467322D01*
X0000358267Y0000438976D02*
X0000374015Y0000423228D01*
X0000329921Y0000467322D02*
X0000358267Y0000438976D01*
X0000275590Y0000324803D02*
X0000118110Y0000167322D01*
X0000393700Y0000374015D02*
X0000324803Y0000374015D01*
X0000324803Y0000374015D02*
X0000275590Y0000324803D01*
D14*
G36*
X0000531596Y0001066929D02*
X0000531596Y0001000000D01*
X0000533537Y0000990245D01*
X0000539062Y0000981976D01*
X0000547332Y0000976450D01*
X0000549118Y0000976095D01*
X0000548400Y0000975615D01*
X0000535478Y0000956276D01*
X0000530941Y0000933464D01*
X0000535478Y0000910652D01*
X0000548400Y0000891313D01*
X0000560148Y0000883464D01*
X0000548400Y0000875615D01*
X0000535478Y0000856276D01*
X0000530941Y0000833464D01*
X0000535478Y0000810652D01*
X0000548400Y0000791313D01*
X0000560148Y0000783464D01*
X0000548400Y0000775615D01*
X0000535478Y0000756276D01*
X0000530941Y0000733464D01*
X0000535478Y0000710652D01*
X0000548400Y0000691313D01*
X0000560148Y0000683464D01*
X0000548400Y0000675615D01*
X0000535478Y0000656276D01*
X0000530941Y0000633464D01*
X0000535478Y0000610652D01*
X0000548400Y0000591313D01*
X0000560148Y0000583464D01*
X0000548400Y0000575615D01*
X0000535478Y0000556276D01*
X0000530941Y0000533464D01*
X0000535478Y0000510652D01*
X0000548400Y0000491313D01*
X0000560148Y0000483464D01*
X0000548400Y0000475615D01*
X0000535478Y0000456276D01*
X0000530941Y0000433464D01*
X0000535478Y0000410652D01*
X0000548400Y0000391313D01*
X0000560148Y0000383464D01*
X0000548400Y0000375615D01*
X0000535478Y0000356276D01*
X0000530941Y0000333464D01*
X0000535478Y0000310652D01*
X0000548400Y0000291313D01*
X0000560148Y0000283464D01*
X0000548400Y0000275615D01*
X0000535478Y0000256276D01*
X0000530941Y0000233464D01*
X0000535478Y0000210652D01*
X0000548400Y0000191313D01*
X0000560963Y0000182919D01*
X0000555852Y0000180519D01*
X0000540486Y0000163658D01*
X0000533800Y0000147515D01*
X0000538576Y0000138464D01*
X0000585551Y0000138464D01*
X0000585551Y0000139251D01*
X0000595551Y0000139251D01*
X0000595551Y0000138464D01*
X0000596338Y0000138464D01*
X0000596338Y0000128464D01*
X0000595551Y0000128464D01*
X0000595551Y0000127677D01*
X0000585551Y0000127677D01*
X0000585551Y0000128464D01*
X0000538576Y0000128464D01*
X0000533800Y0000119413D01*
X0000540486Y0000103270D01*
X0000555852Y0000086410D01*
X0000573441Y0000078149D01*
X0000087992Y0000078149D01*
X0000087992Y0000108368D01*
X0000151574Y0000108368D01*
X0000161329Y0000110308D01*
X0000169598Y0000115834D01*
X0000175124Y0000124103D01*
X0000177064Y0000133858D01*
X0000177064Y0000183962D01*
X0000298831Y0000305729D01*
X0000298831Y0000305729D01*
X0000337196Y0000344094D01*
X0000365995Y0000344094D01*
X0000370618Y0000339471D01*
X0000385595Y0000333267D01*
X0000401806Y0000333267D01*
X0000416782Y0000339471D01*
X0000428245Y0000350933D01*
X0000434448Y0000365910D01*
X0000434448Y0000382121D01*
X0000434194Y0000382734D01*
X0000434807Y0000382480D01*
X0000451018Y0000382480D01*
X0000465995Y0000388683D01*
X0000477457Y0000400146D01*
X0000483661Y0000415123D01*
X0000483661Y0000431333D01*
X0000477457Y0000446310D01*
X0000465995Y0000457772D01*
X0000451018Y0000463976D01*
X0000444480Y0000463976D01*
X0000322060Y0000586396D01*
X0000320390Y0000588894D01*
X0000310493Y0000595508D01*
X0000301765Y0000597244D01*
X0000301765Y0000597244D01*
X0000298818Y0000597830D01*
X0000295872Y0000597244D01*
X0000168432Y0000597244D01*
X0000160260Y0000609473D01*
X0000140921Y0000622395D01*
X0000123868Y0000625787D01*
X0000112352Y0000625787D01*
X0000095298Y0000622395D01*
X0000087992Y0000617513D01*
X0000087992Y0000916961D01*
X0000164960Y0000916961D01*
X0000164960Y0000899967D01*
X0000171463Y0000884267D01*
X0000183480Y0000872251D01*
X0000199180Y0000865748D01*
X0000216173Y0000865748D01*
X0000231874Y0000872251D01*
X0000243890Y0000884267D01*
X0000250393Y0000899967D01*
X0000250393Y0000916961D01*
X0000338188Y0000916961D01*
X0000338188Y0000899967D01*
X0000344692Y0000884267D01*
X0000356708Y0000872251D01*
X0000372408Y0000865748D01*
X0000389402Y0000865748D01*
X0000405102Y0000872251D01*
X0000417118Y0000884267D01*
X0000423622Y0000899967D01*
X0000423622Y0000916961D01*
X0000417118Y0000932661D01*
X0000405102Y0000944677D01*
X0000389402Y0000951181D01*
X0000372408Y0000951181D01*
X0000356708Y0000944677D01*
X0000344692Y0000932661D01*
X0000338188Y0000916961D01*
X0000250393Y0000916961D01*
X0000243890Y0000932661D01*
X0000231874Y0000944677D01*
X0000216173Y0000951181D01*
X0000199180Y0000951181D01*
X0000183480Y0000944677D01*
X0000171463Y0000932661D01*
X0000164960Y0000916961D01*
X0000087992Y0000916961D01*
X0000087992Y0001073425D01*
X0000532888Y0001073425D01*
X0000531596Y0001066929D01*
X0000531596Y0001066929D01*
G37*
X0000531596Y0001066929D02*
X0000531596Y0001000000D01*
X0000533537Y0000990245D01*
X0000539062Y0000981976D01*
X0000547332Y0000976450D01*
X0000549118Y0000976095D01*
X0000548400Y0000975615D01*
X0000535478Y0000956276D01*
X0000530941Y0000933464D01*
X0000535478Y0000910652D01*
X0000548400Y0000891313D01*
X0000560148Y0000883464D01*
X0000548400Y0000875615D01*
X0000535478Y0000856276D01*
X0000530941Y0000833464D01*
X0000535478Y0000810652D01*
X0000548400Y0000791313D01*
X0000560148Y0000783464D01*
X0000548400Y0000775615D01*
X0000535478Y0000756276D01*
X0000530941Y0000733464D01*
X0000535478Y0000710652D01*
X0000548400Y0000691313D01*
X0000560148Y0000683464D01*
X0000548400Y0000675615D01*
X0000535478Y0000656276D01*
X0000530941Y0000633464D01*
X0000535478Y0000610652D01*
X0000548400Y0000591313D01*
X0000560148Y0000583464D01*
X0000548400Y0000575615D01*
X0000535478Y0000556276D01*
X0000530941Y0000533464D01*
X0000535478Y0000510652D01*
X0000548400Y0000491313D01*
X0000560148Y0000483464D01*
X0000548400Y0000475615D01*
X0000535478Y0000456276D01*
X0000530941Y0000433464D01*
X0000535478Y0000410652D01*
X0000548400Y0000391313D01*
X0000560148Y0000383464D01*
X0000548400Y0000375615D01*
X0000535478Y0000356276D01*
X0000530941Y0000333464D01*
X0000535478Y0000310652D01*
X0000548400Y0000291313D01*
X0000560148Y0000283464D01*
X0000548400Y0000275615D01*
X0000535478Y0000256276D01*
X0000530941Y0000233464D01*
X0000535478Y0000210652D01*
X0000548400Y0000191313D01*
X0000560963Y0000182919D01*
X0000555852Y0000180519D01*
X0000540486Y0000163658D01*
X0000533800Y0000147515D01*
X0000538576Y0000138464D01*
X0000585551Y0000138464D01*
X0000585551Y0000139251D01*
X0000595551Y0000139251D01*
X0000595551Y0000138464D01*
X0000596338Y0000138464D01*
X0000596338Y0000128464D01*
X0000595551Y0000128464D01*
X0000595551Y0000127677D01*
X0000585551Y0000127677D01*
X0000585551Y0000128464D01*
X0000538576Y0000128464D01*
X0000533800Y0000119413D01*
X0000540486Y0000103270D01*
X0000555852Y0000086410D01*
X0000573441Y0000078149D01*
X0000087992Y0000078149D01*
X0000087992Y0000108368D01*
X0000151574Y0000108368D01*
X0000161329Y0000110308D01*
X0000169598Y0000115834D01*
X0000175124Y0000124103D01*
X0000177064Y0000133858D01*
X0000177064Y0000183962D01*
X0000298831Y0000305729D01*
X0000298831Y0000305729D01*
X0000337196Y0000344094D01*
X0000365995Y0000344094D01*
X0000370618Y0000339471D01*
X0000385595Y0000333267D01*
X0000401806Y0000333267D01*
X0000416782Y0000339471D01*
X0000428245Y0000350933D01*
X0000434448Y0000365910D01*
X0000434448Y0000382121D01*
X0000434194Y0000382734D01*
X0000434807Y0000382480D01*
X0000451018Y0000382480D01*
X0000465995Y0000388683D01*
X0000477457Y0000400146D01*
X0000483661Y0000415123D01*
X0000483661Y0000431333D01*
X0000477457Y0000446310D01*
X0000465995Y0000457772D01*
X0000451018Y0000463976D01*
X0000444480Y0000463976D01*
X0000322060Y0000586396D01*
X0000320390Y0000588894D01*
X0000310493Y0000595508D01*
X0000301765Y0000597244D01*
X0000301765Y0000597244D01*
X0000298818Y0000597830D01*
X0000295872Y0000597244D01*
X0000168432Y0000597244D01*
X0000160260Y0000609473D01*
X0000140921Y0000622395D01*
X0000123868Y0000625787D01*
X0000112352Y0000625787D01*
X0000095298Y0000622395D01*
X0000087992Y0000617513D01*
X0000087992Y0000916961D01*
X0000164960Y0000916961D01*
X0000164960Y0000899967D01*
X0000171463Y0000884267D01*
X0000183480Y0000872251D01*
X0000199180Y0000865748D01*
X0000216173Y0000865748D01*
X0000231874Y0000872251D01*
X0000243890Y0000884267D01*
X0000250393Y0000899967D01*
X0000250393Y0000916961D01*
X0000338188Y0000916961D01*
X0000338188Y0000899967D01*
X0000344692Y0000884267D01*
X0000356708Y0000872251D01*
X0000372408Y0000865748D01*
X0000389402Y0000865748D01*
X0000405102Y0000872251D01*
X0000417118Y0000884267D01*
X0000423622Y0000899967D01*
X0000423622Y0000916961D01*
X0000417118Y0000932661D01*
X0000405102Y0000944677D01*
X0000389402Y0000951181D01*
X0000372408Y0000951181D01*
X0000356708Y0000944677D01*
X0000344692Y0000932661D01*
X0000338188Y0000916961D01*
X0000250393Y0000916961D01*
X0000243890Y0000932661D01*
X0000231874Y0000944677D01*
X0000216173Y0000951181D01*
X0000199180Y0000951181D01*
X0000183480Y0000944677D01*
X0000171463Y0000932661D01*
X0000164960Y0000916961D01*
X0000087992Y0000916961D01*
X0000087992Y0001073425D01*
X0000532888Y0001073425D01*
X0000531596Y0001066929D01*
G36*
X0000333267Y0000421661D02*
X0000333267Y0000415123D01*
X0000337901Y0000403937D01*
X0000327749Y0000403937D01*
X0000324803Y0000404523D01*
X0000321856Y0000403937D01*
X0000321856Y0000403937D01*
X0000313128Y0000402200D01*
X0000303231Y0000395587D01*
X0000301561Y0000393089D01*
X0000256516Y0000348044D01*
X0000256516Y0000348044D01*
X0000177400Y0000268928D01*
X0000173182Y0000290134D01*
X0000160260Y0000309473D01*
X0000147697Y0000317867D01*
X0000152809Y0000320268D01*
X0000168174Y0000337128D01*
X0000174861Y0000353272D01*
X0000170084Y0000362322D01*
X0000123110Y0000362322D01*
X0000123110Y0000361535D01*
X0000113110Y0000361535D01*
X0000113110Y0000362322D01*
X0000112322Y0000362322D01*
X0000112322Y0000372322D01*
X0000113110Y0000372322D01*
X0000113110Y0000373110D01*
X0000123110Y0000373110D01*
X0000123110Y0000372322D01*
X0000170084Y0000372322D01*
X0000174861Y0000381373D01*
X0000168174Y0000397516D01*
X0000152809Y0000414377D01*
X0000147697Y0000416777D01*
X0000160260Y0000425172D01*
X0000168432Y0000437401D01*
X0000317527Y0000437401D01*
X0000333267Y0000421661D01*
X0000333267Y0000421661D01*
G37*
X0000333267Y0000421661D02*
X0000333267Y0000415123D01*
X0000337901Y0000403937D01*
X0000327749Y0000403937D01*
X0000324803Y0000404523D01*
X0000321856Y0000403937D01*
X0000321856Y0000403937D01*
X0000313128Y0000402200D01*
X0000303231Y0000395587D01*
X0000301561Y0000393089D01*
X0000256516Y0000348044D01*
X0000256516Y0000348044D01*
X0000177400Y0000268928D01*
X0000173182Y0000290134D01*
X0000160260Y0000309473D01*
X0000147697Y0000317867D01*
X0000152809Y0000320268D01*
X0000168174Y0000337128D01*
X0000174861Y0000353272D01*
X0000170084Y0000362322D01*
X0000123110Y0000362322D01*
X0000123110Y0000361535D01*
X0000113110Y0000361535D01*
X0000113110Y0000362322D01*
X0000112322Y0000362322D01*
X0000112322Y0000372322D01*
X0000113110Y0000372322D01*
X0000113110Y0000373110D01*
X0000123110Y0000373110D01*
X0000123110Y0000372322D01*
X0000170084Y0000372322D01*
X0000174861Y0000381373D01*
X0000168174Y0000397516D01*
X0000152809Y0000414377D01*
X0000147697Y0000416777D01*
X0000160260Y0000425172D01*
X0000168432Y0000437401D01*
X0000317527Y0000437401D01*
X0000333267Y0000421661D01*
G04 next file*
G04 #@! TF.GenerationSoftware,KiCad,Pcbnew,(5.0.0)*
G04 #@! TF.CreationDate,2018-09-18T20:25:08+02:00*
G04 #@! TF.ProjectId,pcb_relay_main,7063625F72656C61795F6D61696E2E6B,rev?*
G04 #@! TF.SameCoordinates,PXeb14aa0PY7f13bd0*
G04 #@! TF.FileFunction,Copper,L2,Bot,Signal*
G04 #@! TF.FilePolarity,Positive*
G04 Gerber Fmt 4.6, Leading zero omitted, Abs format (unit mm)*
G04 Created by KiCad (PCBNEW (5.0.0)) date 09/18/18 20:25:08*
G01*
G04 APERTURE LIST*
G04 #@! TA.AperFunction,ComponentPad*
G04 #@! TD*
G04 #@! TA.AperFunction,ComponentPad*
G04 #@! TD*
G04 #@! TA.AperFunction,ViaPad*
G04 #@! TD*
G04 #@! TA.AperFunction,Conductor*
G04 #@! TD*
G04 #@! TA.AperFunction,Conductor*
G04 #@! TD*
G04 APERTURE END LIST*
D25*
G04 #@! TO.P,J3,10*
G04 #@! TO.N,GND*
X0000787401Y0001102362D02*
X0001318897Y0000133464D03*
G04 #@! TO.P,J3,9*
G04 #@! TO.N,RA5*
X0001318897Y0000233464D03*
G04 #@! TO.P,J3,8*
G04 #@! TO.N,RA4*
X0001318897Y0000333464D03*
G04 #@! TO.P,J3,7*
G04 #@! TO.N,Net-(J3-Pad7)*
X0001318897Y0000433464D03*
G04 #@! TO.P,J3,6*
G04 #@! TO.N,Net-(J3-Pad6)*
X0001318897Y0000533464D03*
G04 #@! TO.P,J3,5*
G04 #@! TO.N,Net-(J3-Pad5)*
X0001318897Y0000633464D03*
G04 #@! TO.P,J3,4*
G04 #@! TO.N,Net-(J3-Pad4)*
X0001318897Y0000733464D03*
G04 #@! TO.P,J3,3*
G04 #@! TO.N,ICSPCLK*
X0001318897Y0000833464D03*
G04 #@! TO.P,J3,2*
G04 #@! TO.N,ICSPDAT*
X0001318897Y0000933464D03*
D26*
G04 #@! TO.P,J3,1*
G04 #@! TO.N,+5V*
X0001318897Y0001033464D03*
G04 #@! TD*
D25*
G04 #@! TO.P,J1,5*
G04 #@! TO.N,ICSPCLK*
X0000846456Y0000567322D03*
G04 #@! TO.P,J1,4*
G04 #@! TO.N,ICSPDAT*
X0000846456Y0000467322D03*
G04 #@! TO.P,J1,3*
G04 #@! TO.N,GND*
X0000846456Y0000367322D03*
G04 #@! TO.P,J1,2*
G04 #@! TO.N,+5V*
X0000846456Y0000267322D03*
D26*
G04 #@! TO.P,J1,1*
G04 #@! TO.N,VPP*
X0000846456Y0000167322D03*
G04 #@! TD*
D27*
G04 #@! TO.N,GND*
X0000964566Y0000679133D03*
X0001082677Y0000718503D03*
X0001053149Y0000423228D03*
X0000846456Y0000679133D03*
X0001053149Y0000137795D03*
X0001033464Y0000984251D03*
G04 #@! TO.N,ICSPCLK*
X0001171259Y0000423228D03*
G04 #@! TO.N,ICSPDAT*
X0001102362Y0000423228D03*
G04 #@! TO.N,VPP*
X0001122047Y0000374015D03*
G04 #@! TD*
D28*
G04 #@! TO.N,GND*
X0000964566Y0000679133D02*
X0000942295Y0000679133D01*
X0000942295Y0000679133D02*
X0000846456Y0000679133D01*
X0001003937Y0000718503D02*
X0000964566Y0000679133D01*
X0001082677Y0000718503D02*
X0001003937Y0000718503D01*
G04 #@! TO.N,ICSPCLK*
X0001027165Y0000567322D02*
X0001155511Y0000438976D01*
X0001155511Y0000438976D02*
X0001171259Y0000423228D01*
X0000846456Y0000567322D02*
X0001027165Y0000567322D01*
G04 #@! TO.N,ICSPDAT*
X0000846456Y0000467322D02*
X0001058267Y0000467322D01*
X0001086614Y0000438976D02*
X0001102362Y0000423228D01*
X0001058267Y0000467322D02*
X0001086614Y0000438976D01*
G04 #@! TO.N,VPP*
X0001003937Y0000324803D02*
X0000846456Y0000167322D01*
X0001122047Y0000374015D02*
X0001053149Y0000374015D01*
X0001053149Y0000374015D02*
X0001003937Y0000324803D01*
G04 #@! TD*
D29*
G04 #@! TO.N,GND*
G36*
X0001259943Y0001066929D02*
X0001259943Y0001000000D01*
X0001261883Y0000990245D01*
X0001267409Y0000981976D01*
X0001275678Y0000976450D01*
X0001277465Y0000976095D01*
X0001276747Y0000975615D01*
X0001263825Y0000956276D01*
X0001259287Y0000933464D01*
X0001263825Y0000910652D01*
X0001276747Y0000891313D01*
X0001288494Y0000883464D01*
X0001276747Y0000875615D01*
X0001263825Y0000856276D01*
X0001259287Y0000833464D01*
X0001263825Y0000810652D01*
X0001276747Y0000791313D01*
X0001288494Y0000783464D01*
X0001276747Y0000775615D01*
X0001263825Y0000756276D01*
X0001259287Y0000733464D01*
X0001263825Y0000710652D01*
X0001276747Y0000691313D01*
X0001288494Y0000683464D01*
X0001276747Y0000675615D01*
X0001263825Y0000656276D01*
X0001259287Y0000633464D01*
X0001263825Y0000610652D01*
X0001276747Y0000591313D01*
X0001288494Y0000583464D01*
X0001276747Y0000575615D01*
X0001263825Y0000556276D01*
X0001259287Y0000533464D01*
X0001263825Y0000510652D01*
X0001276747Y0000491313D01*
X0001288494Y0000483464D01*
X0001276747Y0000475615D01*
X0001263825Y0000456276D01*
X0001259287Y0000433464D01*
X0001263825Y0000410652D01*
X0001276747Y0000391313D01*
X0001288494Y0000383464D01*
X0001276747Y0000375615D01*
X0001263825Y0000356276D01*
X0001259287Y0000333464D01*
X0001263825Y0000310652D01*
X0001276747Y0000291313D01*
X0001288494Y0000283464D01*
X0001276747Y0000275615D01*
X0001263825Y0000256276D01*
X0001259287Y0000233464D01*
X0001263825Y0000210652D01*
X0001276747Y0000191313D01*
X0001289310Y0000182919D01*
X0001284198Y0000180519D01*
X0001268832Y0000163658D01*
X0001262146Y0000147515D01*
X0001266923Y0000138464D01*
X0001313897Y0000138464D01*
X0001313897Y0000139251D01*
X0001323897Y0000139251D01*
X0001323897Y0000138464D01*
X0001324685Y0000138464D01*
X0001324685Y0000128464D01*
X0001323897Y0000128464D01*
X0001323897Y0000127677D01*
X0001313897Y0000127677D01*
X0001313897Y0000128464D01*
X0001266923Y0000128464D01*
X0001262146Y0000119413D01*
X0001268832Y0000103270D01*
X0001284198Y0000086410D01*
X0001301788Y0000078149D01*
X0000816338Y0000078149D01*
X0000816338Y0000108368D01*
X0000879921Y0000108368D01*
X0000889675Y0000110308D01*
X0000897945Y0000115834D01*
X0000903470Y0000124103D01*
X0000905411Y0000133858D01*
X0000905411Y0000183962D01*
X0001027178Y0000305729D01*
X0001027178Y0000305729D01*
X0001065543Y0000344094D01*
X0001094342Y0000344094D01*
X0001098965Y0000339471D01*
X0001113941Y0000333267D01*
X0001130152Y0000333267D01*
X0001145129Y0000339471D01*
X0001156591Y0000350933D01*
X0001162795Y0000365910D01*
X0001162795Y0000382121D01*
X0001162541Y0000382734D01*
X0001163154Y0000382480D01*
X0001179364Y0000382480D01*
X0001194341Y0000388683D01*
X0001205804Y0000400146D01*
X0001212007Y0000415123D01*
X0001212007Y0000431333D01*
X0001205804Y0000446310D01*
X0001194341Y0000457772D01*
X0001179364Y0000463976D01*
X0001172826Y0000463976D01*
X0001050406Y0000586396D01*
X0001048737Y0000588894D01*
X0001038839Y0000595508D01*
X0001030112Y0000597244D01*
X0001030111Y0000597244D01*
X0001027165Y0000597830D01*
X0001024218Y0000597244D01*
X0000896778Y0000597244D01*
X0000888607Y0000609473D01*
X0000869268Y0000622395D01*
X0000852214Y0000625787D01*
X0000840698Y0000625787D01*
X0000823644Y0000622395D01*
X0000816338Y0000617513D01*
X0000816338Y0000916961D01*
X0000893307Y0000916961D01*
X0000893307Y0000899967D01*
X0000899810Y0000884267D01*
X0000911826Y0000872251D01*
X0000927526Y0000865748D01*
X0000944520Y0000865748D01*
X0000960220Y0000872251D01*
X0000972236Y0000884267D01*
X0000978740Y0000899967D01*
X0000978740Y0000916961D01*
X0001066535Y0000916961D01*
X0001066535Y0000899967D01*
X0001073038Y0000884267D01*
X0001085055Y0000872251D01*
X0001100755Y0000865748D01*
X0001117748Y0000865748D01*
X0001133448Y0000872251D01*
X0001145465Y0000884267D01*
X0001151968Y0000899967D01*
X0001151968Y0000916961D01*
X0001145465Y0000932661D01*
X0001133448Y0000944677D01*
X0001117748Y0000951181D01*
X0001100755Y0000951181D01*
X0001085055Y0000944677D01*
X0001073038Y0000932661D01*
X0001066535Y0000916961D01*
X0000978740Y0000916961D01*
X0000972236Y0000932661D01*
X0000960220Y0000944677D01*
X0000944520Y0000951181D01*
X0000927526Y0000951181D01*
X0000911826Y0000944677D01*
X0000899810Y0000932661D01*
X0000893307Y0000916961D01*
X0000816338Y0000916961D01*
X0000816338Y0001073425D01*
X0001261235Y0001073425D01*
X0001259943Y0001066929D01*
X0001259943Y0001066929D01*
G37*
X0001259943Y0001066929D02*
X0001259943Y0001000000D01*
X0001261883Y0000990245D01*
X0001267409Y0000981976D01*
X0001275678Y0000976450D01*
X0001277465Y0000976095D01*
X0001276747Y0000975615D01*
X0001263825Y0000956276D01*
X0001259287Y0000933464D01*
X0001263825Y0000910652D01*
X0001276747Y0000891313D01*
X0001288494Y0000883464D01*
X0001276747Y0000875615D01*
X0001263825Y0000856276D01*
X0001259287Y0000833464D01*
X0001263825Y0000810652D01*
X0001276747Y0000791313D01*
X0001288494Y0000783464D01*
X0001276747Y0000775615D01*
X0001263825Y0000756276D01*
X0001259287Y0000733464D01*
X0001263825Y0000710652D01*
X0001276747Y0000691313D01*
X0001288494Y0000683464D01*
X0001276747Y0000675615D01*
X0001263825Y0000656276D01*
X0001259287Y0000633464D01*
X0001263825Y0000610652D01*
X0001276747Y0000591313D01*
X0001288494Y0000583464D01*
X0001276747Y0000575615D01*
X0001263825Y0000556276D01*
X0001259287Y0000533464D01*
X0001263825Y0000510652D01*
X0001276747Y0000491313D01*
X0001288494Y0000483464D01*
X0001276747Y0000475615D01*
X0001263825Y0000456276D01*
X0001259287Y0000433464D01*
X0001263825Y0000410652D01*
X0001276747Y0000391313D01*
X0001288494Y0000383464D01*
X0001276747Y0000375615D01*
X0001263825Y0000356276D01*
X0001259287Y0000333464D01*
X0001263825Y0000310652D01*
X0001276747Y0000291313D01*
X0001288494Y0000283464D01*
X0001276747Y0000275615D01*
X0001263825Y0000256276D01*
X0001259287Y0000233464D01*
X0001263825Y0000210652D01*
X0001276747Y0000191313D01*
X0001289310Y0000182919D01*
X0001284198Y0000180519D01*
X0001268832Y0000163658D01*
X0001262146Y0000147515D01*
X0001266923Y0000138464D01*
X0001313897Y0000138464D01*
X0001313897Y0000139251D01*
X0001323897Y0000139251D01*
X0001323897Y0000138464D01*
X0001324685Y0000138464D01*
X0001324685Y0000128464D01*
X0001323897Y0000128464D01*
X0001323897Y0000127677D01*
X0001313897Y0000127677D01*
X0001313897Y0000128464D01*
X0001266923Y0000128464D01*
X0001262146Y0000119413D01*
X0001268832Y0000103270D01*
X0001284198Y0000086410D01*
X0001301788Y0000078149D01*
X0000816338Y0000078149D01*
X0000816338Y0000108368D01*
X0000879921Y0000108368D01*
X0000889675Y0000110308D01*
X0000897945Y0000115834D01*
X0000903470Y0000124103D01*
X0000905411Y0000133858D01*
X0000905411Y0000183962D01*
X0001027178Y0000305729D01*
X0001027178Y0000305729D01*
X0001065543Y0000344094D01*
X0001094342Y0000344094D01*
X0001098965Y0000339471D01*
X0001113941Y0000333267D01*
X0001130152Y0000333267D01*
X0001145129Y0000339471D01*
X0001156591Y0000350933D01*
X0001162795Y0000365910D01*
X0001162795Y0000382121D01*
X0001162541Y0000382734D01*
X0001163154Y0000382480D01*
X0001179364Y0000382480D01*
X0001194341Y0000388683D01*
X0001205804Y0000400146D01*
X0001212007Y0000415123D01*
X0001212007Y0000431333D01*
X0001205804Y0000446310D01*
X0001194341Y0000457772D01*
X0001179364Y0000463976D01*
X0001172826Y0000463976D01*
X0001050406Y0000586396D01*
X0001048737Y0000588894D01*
X0001038839Y0000595508D01*
X0001030112Y0000597244D01*
X0001030111Y0000597244D01*
X0001027165Y0000597830D01*
X0001024218Y0000597244D01*
X0000896778Y0000597244D01*
X0000888607Y0000609473D01*
X0000869268Y0000622395D01*
X0000852214Y0000625787D01*
X0000840698Y0000625787D01*
X0000823644Y0000622395D01*
X0000816338Y0000617513D01*
X0000816338Y0000916961D01*
X0000893307Y0000916961D01*
X0000893307Y0000899967D01*
X0000899810Y0000884267D01*
X0000911826Y0000872251D01*
X0000927526Y0000865748D01*
X0000944520Y0000865748D01*
X0000960220Y0000872251D01*
X0000972236Y0000884267D01*
X0000978740Y0000899967D01*
X0000978740Y0000916961D01*
X0001066535Y0000916961D01*
X0001066535Y0000899967D01*
X0001073038Y0000884267D01*
X0001085055Y0000872251D01*
X0001100755Y0000865748D01*
X0001117748Y0000865748D01*
X0001133448Y0000872251D01*
X0001145465Y0000884267D01*
X0001151968Y0000899967D01*
X0001151968Y0000916961D01*
X0001145465Y0000932661D01*
X0001133448Y0000944677D01*
X0001117748Y0000951181D01*
X0001100755Y0000951181D01*
X0001085055Y0000944677D01*
X0001073038Y0000932661D01*
X0001066535Y0000916961D01*
X0000978740Y0000916961D01*
X0000972236Y0000932661D01*
X0000960220Y0000944677D01*
X0000944520Y0000951181D01*
X0000927526Y0000951181D01*
X0000911826Y0000944677D01*
X0000899810Y0000932661D01*
X0000893307Y0000916961D01*
X0000816338Y0000916961D01*
X0000816338Y0001073425D01*
X0001261235Y0001073425D01*
X0001259943Y0001066929D01*
G36*
X0001061614Y0000421661D02*
X0001061614Y0000415123D01*
X0001066247Y0000403937D01*
X0001056096Y0000403937D01*
X0001053149Y0000404523D01*
X0001050202Y0000403937D01*
X0001050202Y0000403937D01*
X0001041474Y0000402200D01*
X0001031577Y0000395587D01*
X0001029908Y0000393089D01*
X0000984863Y0000348044D01*
X0000984863Y0000348044D01*
X0000905747Y0000268928D01*
X0000901529Y0000290134D01*
X0000888607Y0000309473D01*
X0000876044Y0000317867D01*
X0000881155Y0000320268D01*
X0000896521Y0000337128D01*
X0000903207Y0000353272D01*
X0000898431Y0000362322D01*
X0000851456Y0000362322D01*
X0000851456Y0000361535D01*
X0000841456Y0000361535D01*
X0000841456Y0000362322D01*
X0000840669Y0000362322D01*
X0000840669Y0000372322D01*
X0000841456Y0000372322D01*
X0000841456Y0000373110D01*
X0000851456Y0000373110D01*
X0000851456Y0000372322D01*
X0000898431Y0000372322D01*
X0000903207Y0000381373D01*
X0000896521Y0000397516D01*
X0000881155Y0000414377D01*
X0000876044Y0000416777D01*
X0000888607Y0000425172D01*
X0000896778Y0000437401D01*
X0001045873Y0000437401D01*
X0001061614Y0000421661D01*
X0001061614Y0000421661D01*
G37*
X0001061614Y0000421661D02*
X0001061614Y0000415123D01*
X0001066247Y0000403937D01*
X0001056096Y0000403937D01*
X0001053149Y0000404523D01*
X0001050202Y0000403937D01*
X0001050202Y0000403937D01*
X0001041474Y0000402200D01*
X0001031577Y0000395587D01*
X0001029908Y0000393089D01*
X0000984863Y0000348044D01*
X0000984863Y0000348044D01*
X0000905747Y0000268928D01*
X0000901529Y0000290134D01*
X0000888607Y0000309473D01*
X0000876044Y0000317867D01*
X0000881155Y0000320268D01*
X0000896521Y0000337128D01*
X0000903207Y0000353272D01*
X0000898431Y0000362322D01*
X0000851456Y0000362322D01*
X0000851456Y0000361535D01*
X0000841456Y0000361535D01*
X0000841456Y0000362322D01*
X0000840669Y0000362322D01*
X0000840669Y0000372322D01*
X0000841456Y0000372322D01*
X0000841456Y0000373110D01*
X0000851456Y0000373110D01*
X0000851456Y0000372322D01*
X0000898431Y0000372322D01*
X0000903207Y0000381373D01*
X0000896521Y0000397516D01*
X0000881155Y0000414377D01*
X0000876044Y0000416777D01*
X0000888607Y0000425172D01*
X0000896778Y0000437401D01*
X0001045873Y0000437401D01*
X0001061614Y0000421661D01*
G04 #@! TD*
G04 next file*
G04 #@! TF.GenerationSoftware,KiCad,Pcbnew,(5.0.0)*
G04 #@! TF.CreationDate,2018-09-18T20:25:08+02:00*
G04 #@! TF.ProjectId,pcb_relay_main,7063625F72656C61795F6D61696E2E6B,rev?*
G04 #@! TF.SameCoordinates,PXeb14aa0PY7f13bd0*
G04 #@! TF.FileFunction,Copper,L2,Bot,Signal*
G04 #@! TF.FilePolarity,Positive*
G04 Gerber Fmt 4.6, Leading zero omitted, Abs format (unit mm)*
G04 Created by KiCad (PCBNEW (5.0.0)) date 09/18/18 20:25:08*
G01*
G04 APERTURE LIST*
G04 #@! TA.AperFunction,ComponentPad*
G04 #@! TD*
G04 #@! TA.AperFunction,ComponentPad*
G04 #@! TD*
G04 #@! TA.AperFunction,ViaPad*
G04 #@! TD*
G04 #@! TA.AperFunction,Conductor*
G04 #@! TD*
G04 #@! TA.AperFunction,Conductor*
G04 #@! TD*
G04 APERTURE END LIST*
D30*
G04 #@! TO.P,J3,10*
G04 #@! TO.N,GND*
X0000059055Y0002244094D02*
X0000590551Y0001275196D03*
G04 #@! TO.P,J3,9*
G04 #@! TO.N,RA5*
X0000590551Y0001375196D03*
G04 #@! TO.P,J3,8*
G04 #@! TO.N,RA4*
X0000590551Y0001475196D03*
G04 #@! TO.P,J3,7*
G04 #@! TO.N,Net-(J3-Pad7)*
X0000590551Y0001575196D03*
G04 #@! TO.P,J3,6*
G04 #@! TO.N,Net-(J3-Pad6)*
X0000590551Y0001675196D03*
G04 #@! TO.P,J3,5*
G04 #@! TO.N,Net-(J3-Pad5)*
X0000590551Y0001775196D03*
G04 #@! TO.P,J3,4*
G04 #@! TO.N,Net-(J3-Pad4)*
X0000590551Y0001875196D03*
G04 #@! TO.P,J3,3*
G04 #@! TO.N,ICSPCLK*
X0000590551Y0001975196D03*
G04 #@! TO.P,J3,2*
G04 #@! TO.N,ICSPDAT*
X0000590551Y0002075196D03*
D31*
G04 #@! TO.P,J3,1*
G04 #@! TO.N,+5V*
X0000590551Y0002175196D03*
G04 #@! TD*
D30*
G04 #@! TO.P,J1,5*
G04 #@! TO.N,ICSPCLK*
X0000118110Y0001709055D03*
G04 #@! TO.P,J1,4*
G04 #@! TO.N,ICSPDAT*
X0000118110Y0001609055D03*
G04 #@! TO.P,J1,3*
G04 #@! TO.N,GND*
X0000118110Y0001509055D03*
G04 #@! TO.P,J1,2*
G04 #@! TO.N,+5V*
X0000118110Y0001409055D03*
D31*
G04 #@! TO.P,J1,1*
G04 #@! TO.N,VPP*
X0000118110Y0001309055D03*
G04 #@! TD*
D32*
G04 #@! TO.N,GND*
X0000236220Y0001820866D03*
X0000354330Y0001860236D03*
X0000324803Y0001564960D03*
X0000118110Y0001820866D03*
X0000324803Y0001279527D03*
X0000305118Y0002125984D03*
G04 #@! TO.N,ICSPCLK*
X0000442913Y0001564960D03*
G04 #@! TO.N,ICSPDAT*
X0000374015Y0001564960D03*
G04 #@! TO.N,VPP*
X0000393700Y0001515748D03*
G04 #@! TD*
D33*
G04 #@! TO.N,GND*
X0000236220Y0001820866D02*
X0000213949Y0001820866D01*
X0000213949Y0001820866D02*
X0000118110Y0001820866D01*
X0000275590Y0001860236D02*
X0000236220Y0001820866D01*
X0000354330Y0001860236D02*
X0000275590Y0001860236D01*
G04 #@! TO.N,ICSPCLK*
X0000298818Y0001709055D02*
X0000427165Y0001580708D01*
X0000427165Y0001580708D02*
X0000442913Y0001564960D01*
X0000118110Y0001709055D02*
X0000298818Y0001709055D01*
G04 #@! TO.N,ICSPDAT*
X0000118110Y0001609055D02*
X0000329921Y0001609055D01*
X0000358267Y0001580708D02*
X0000374015Y0001564960D01*
X0000329921Y0001609055D02*
X0000358267Y0001580708D01*
G04 #@! TO.N,VPP*
X0000275590Y0001466535D02*
X0000118110Y0001309055D01*
X0000393700Y0001515748D02*
X0000324803Y0001515748D01*
X0000324803Y0001515748D02*
X0000275590Y0001466535D01*
G04 #@! TD*
D34*
G04 #@! TO.N,GND*
G36*
X0000531596Y0002208661D02*
X0000531596Y0002141732D01*
X0000533537Y0002131977D01*
X0000539062Y0002123708D01*
X0000547332Y0002118182D01*
X0000549118Y0002117827D01*
X0000548400Y0002117347D01*
X0000535478Y0002098008D01*
X0000530941Y0002075196D01*
X0000535478Y0002052385D01*
X0000548400Y0002033046D01*
X0000560148Y0002025196D01*
X0000548400Y0002017347D01*
X0000535478Y0001998008D01*
X0000530941Y0001975196D01*
X0000535478Y0001952385D01*
X0000548400Y0001933046D01*
X0000560148Y0001925196D01*
X0000548400Y0001917347D01*
X0000535478Y0001898008D01*
X0000530941Y0001875196D01*
X0000535478Y0001852385D01*
X0000548400Y0001833046D01*
X0000560148Y0001825196D01*
X0000548400Y0001817347D01*
X0000535478Y0001798008D01*
X0000530941Y0001775196D01*
X0000535478Y0001752385D01*
X0000548400Y0001733046D01*
X0000560148Y0001725196D01*
X0000548400Y0001717347D01*
X0000535478Y0001698008D01*
X0000530941Y0001675196D01*
X0000535478Y0001652385D01*
X0000548400Y0001633046D01*
X0000560148Y0001625196D01*
X0000548400Y0001617347D01*
X0000535478Y0001598008D01*
X0000530941Y0001575196D01*
X0000535478Y0001552385D01*
X0000548400Y0001533046D01*
X0000560148Y0001525196D01*
X0000548400Y0001517347D01*
X0000535478Y0001498008D01*
X0000530941Y0001475196D01*
X0000535478Y0001452385D01*
X0000548400Y0001433046D01*
X0000560148Y0001425196D01*
X0000548400Y0001417347D01*
X0000535478Y0001398008D01*
X0000530941Y0001375196D01*
X0000535478Y0001352385D01*
X0000548400Y0001333046D01*
X0000560963Y0001324651D01*
X0000555852Y0001322251D01*
X0000540486Y0001305390D01*
X0000533800Y0001289247D01*
X0000538576Y0001280196D01*
X0000585551Y0001280196D01*
X0000585551Y0001280984D01*
X0000595551Y0001280984D01*
X0000595551Y0001280196D01*
X0000596338Y0001280196D01*
X0000596338Y0001270196D01*
X0000595551Y0001270196D01*
X0000595551Y0001269409D01*
X0000585551Y0001269409D01*
X0000585551Y0001270196D01*
X0000538576Y0001270196D01*
X0000533800Y0001261146D01*
X0000540486Y0001245002D01*
X0000555852Y0001228142D01*
X0000573441Y0001219881D01*
X0000087992Y0001219881D01*
X0000087992Y0001250100D01*
X0000151574Y0001250100D01*
X0000161329Y0001252041D01*
X0000169598Y0001257566D01*
X0000175124Y0001265836D01*
X0000177064Y0001275590D01*
X0000177064Y0001325694D01*
X0000298831Y0001447461D01*
X0000298831Y0001447461D01*
X0000337196Y0001485826D01*
X0000365995Y0001485826D01*
X0000370618Y0001481203D01*
X0000385595Y0001475000D01*
X0000401806Y0001475000D01*
X0000416782Y0001481203D01*
X0000428245Y0001492666D01*
X0000434448Y0001507642D01*
X0000434448Y0001523853D01*
X0000434194Y0001524466D01*
X0000434807Y0001524212D01*
X0000451018Y0001524212D01*
X0000465995Y0001530416D01*
X0000477457Y0001541878D01*
X0000483661Y0001556855D01*
X0000483661Y0001573065D01*
X0000477457Y0001588042D01*
X0000465995Y0001599505D01*
X0000451018Y0001605708D01*
X0000444480Y0001605708D01*
X0000322060Y0001728128D01*
X0000320390Y0001730627D01*
X0000310493Y0001737240D01*
X0000301765Y0001738976D01*
X0000301765Y0001738976D01*
X0000298818Y0001739562D01*
X0000295872Y0001738976D01*
X0000168432Y0001738976D01*
X0000160260Y0001751205D01*
X0000140921Y0001764127D01*
X0000123868Y0001767519D01*
X0000112352Y0001767519D01*
X0000095298Y0001764127D01*
X0000087992Y0001759245D01*
X0000087992Y0002058693D01*
X0000164960Y0002058693D01*
X0000164960Y0002041700D01*
X0000171463Y0002025999D01*
X0000183480Y0002013983D01*
X0000199180Y0002007480D01*
X0000216173Y0002007480D01*
X0000231874Y0002013983D01*
X0000243890Y0002025999D01*
X0000250393Y0002041700D01*
X0000250393Y0002058693D01*
X0000338188Y0002058693D01*
X0000338188Y0002041700D01*
X0000344692Y0002025999D01*
X0000356708Y0002013983D01*
X0000372408Y0002007480D01*
X0000389402Y0002007480D01*
X0000405102Y0002013983D01*
X0000417118Y0002025999D01*
X0000423622Y0002041700D01*
X0000423622Y0002058693D01*
X0000417118Y0002074393D01*
X0000405102Y0002086410D01*
X0000389402Y0002092913D01*
X0000372408Y0002092913D01*
X0000356708Y0002086410D01*
X0000344692Y0002074393D01*
X0000338188Y0002058693D01*
X0000250393Y0002058693D01*
X0000243890Y0002074393D01*
X0000231874Y0002086410D01*
X0000216173Y0002092913D01*
X0000199180Y0002092913D01*
X0000183480Y0002086410D01*
X0000171463Y0002074393D01*
X0000164960Y0002058693D01*
X0000087992Y0002058693D01*
X0000087992Y0002215157D01*
X0000532888Y0002215157D01*
X0000531596Y0002208661D01*
X0000531596Y0002208661D01*
G37*
X0000531596Y0002208661D02*
X0000531596Y0002141732D01*
X0000533537Y0002131977D01*
X0000539062Y0002123708D01*
X0000547332Y0002118182D01*
X0000549118Y0002117827D01*
X0000548400Y0002117347D01*
X0000535478Y0002098008D01*
X0000530941Y0002075196D01*
X0000535478Y0002052385D01*
X0000548400Y0002033046D01*
X0000560148Y0002025196D01*
X0000548400Y0002017347D01*
X0000535478Y0001998008D01*
X0000530941Y0001975196D01*
X0000535478Y0001952385D01*
X0000548400Y0001933046D01*
X0000560148Y0001925196D01*
X0000548400Y0001917347D01*
X0000535478Y0001898008D01*
X0000530941Y0001875196D01*
X0000535478Y0001852385D01*
X0000548400Y0001833046D01*
X0000560148Y0001825196D01*
X0000548400Y0001817347D01*
X0000535478Y0001798008D01*
X0000530941Y0001775196D01*
X0000535478Y0001752385D01*
X0000548400Y0001733046D01*
X0000560148Y0001725196D01*
X0000548400Y0001717347D01*
X0000535478Y0001698008D01*
X0000530941Y0001675196D01*
X0000535478Y0001652385D01*
X0000548400Y0001633046D01*
X0000560148Y0001625196D01*
X0000548400Y0001617347D01*
X0000535478Y0001598008D01*
X0000530941Y0001575196D01*
X0000535478Y0001552385D01*
X0000548400Y0001533046D01*
X0000560148Y0001525196D01*
X0000548400Y0001517347D01*
X0000535478Y0001498008D01*
X0000530941Y0001475196D01*
X0000535478Y0001452385D01*
X0000548400Y0001433046D01*
X0000560148Y0001425196D01*
X0000548400Y0001417347D01*
X0000535478Y0001398008D01*
X0000530941Y0001375196D01*
X0000535478Y0001352385D01*
X0000548400Y0001333046D01*
X0000560963Y0001324651D01*
X0000555852Y0001322251D01*
X0000540486Y0001305390D01*
X0000533800Y0001289247D01*
X0000538576Y0001280196D01*
X0000585551Y0001280196D01*
X0000585551Y0001280984D01*
X0000595551Y0001280984D01*
X0000595551Y0001280196D01*
X0000596338Y0001280196D01*
X0000596338Y0001270196D01*
X0000595551Y0001270196D01*
X0000595551Y0001269409D01*
X0000585551Y0001269409D01*
X0000585551Y0001270196D01*
X0000538576Y0001270196D01*
X0000533800Y0001261146D01*
X0000540486Y0001245002D01*
X0000555852Y0001228142D01*
X0000573441Y0001219881D01*
X0000087992Y0001219881D01*
X0000087992Y0001250100D01*
X0000151574Y0001250100D01*
X0000161329Y0001252041D01*
X0000169598Y0001257566D01*
X0000175124Y0001265836D01*
X0000177064Y0001275590D01*
X0000177064Y0001325694D01*
X0000298831Y0001447461D01*
X0000298831Y0001447461D01*
X0000337196Y0001485826D01*
X0000365995Y0001485826D01*
X0000370618Y0001481203D01*
X0000385595Y0001475000D01*
X0000401806Y0001475000D01*
X0000416782Y0001481203D01*
X0000428245Y0001492666D01*
X0000434448Y0001507642D01*
X0000434448Y0001523853D01*
X0000434194Y0001524466D01*
X0000434807Y0001524212D01*
X0000451018Y0001524212D01*
X0000465995Y0001530416D01*
X0000477457Y0001541878D01*
X0000483661Y0001556855D01*
X0000483661Y0001573065D01*
X0000477457Y0001588042D01*
X0000465995Y0001599505D01*
X0000451018Y0001605708D01*
X0000444480Y0001605708D01*
X0000322060Y0001728128D01*
X0000320390Y0001730627D01*
X0000310493Y0001737240D01*
X0000301765Y0001738976D01*
X0000301765Y0001738976D01*
X0000298818Y0001739562D01*
X0000295872Y0001738976D01*
X0000168432Y0001738976D01*
X0000160260Y0001751205D01*
X0000140921Y0001764127D01*
X0000123868Y0001767519D01*
X0000112352Y0001767519D01*
X0000095298Y0001764127D01*
X0000087992Y0001759245D01*
X0000087992Y0002058693D01*
X0000164960Y0002058693D01*
X0000164960Y0002041700D01*
X0000171463Y0002025999D01*
X0000183480Y0002013983D01*
X0000199180Y0002007480D01*
X0000216173Y0002007480D01*
X0000231874Y0002013983D01*
X0000243890Y0002025999D01*
X0000250393Y0002041700D01*
X0000250393Y0002058693D01*
X0000338188Y0002058693D01*
X0000338188Y0002041700D01*
X0000344692Y0002025999D01*
X0000356708Y0002013983D01*
X0000372408Y0002007480D01*
X0000389402Y0002007480D01*
X0000405102Y0002013983D01*
X0000417118Y0002025999D01*
X0000423622Y0002041700D01*
X0000423622Y0002058693D01*
X0000417118Y0002074393D01*
X0000405102Y0002086410D01*
X0000389402Y0002092913D01*
X0000372408Y0002092913D01*
X0000356708Y0002086410D01*
X0000344692Y0002074393D01*
X0000338188Y0002058693D01*
X0000250393Y0002058693D01*
X0000243890Y0002074393D01*
X0000231874Y0002086410D01*
X0000216173Y0002092913D01*
X0000199180Y0002092913D01*
X0000183480Y0002086410D01*
X0000171463Y0002074393D01*
X0000164960Y0002058693D01*
X0000087992Y0002058693D01*
X0000087992Y0002215157D01*
X0000532888Y0002215157D01*
X0000531596Y0002208661D01*
G36*
X0000333267Y0001563393D02*
X0000333267Y0001556855D01*
X0000337901Y0001545669D01*
X0000327749Y0001545669D01*
X0000324803Y0001546255D01*
X0000321856Y0001545669D01*
X0000321856Y0001545669D01*
X0000313128Y0001543933D01*
X0000303231Y0001537320D01*
X0000301561Y0001534821D01*
X0000256516Y0001489776D01*
X0000256516Y0001489776D01*
X0000177400Y0001410660D01*
X0000173182Y0001431866D01*
X0000160260Y0001451205D01*
X0000147697Y0001459600D01*
X0000152809Y0001462000D01*
X0000168174Y0001478861D01*
X0000174861Y0001495004D01*
X0000170084Y0001504055D01*
X0000123110Y0001504055D01*
X0000123110Y0001503267D01*
X0000113110Y0001503267D01*
X0000113110Y0001504055D01*
X0000112322Y0001504055D01*
X0000112322Y0001514055D01*
X0000113110Y0001514055D01*
X0000113110Y0001514842D01*
X0000123110Y0001514842D01*
X0000123110Y0001514055D01*
X0000170084Y0001514055D01*
X0000174861Y0001523105D01*
X0000168174Y0001539248D01*
X0000152809Y0001556109D01*
X0000147697Y0001558510D01*
X0000160260Y0001566904D01*
X0000168432Y0001579133D01*
X0000317527Y0001579133D01*
X0000333267Y0001563393D01*
X0000333267Y0001563393D01*
G37*
X0000333267Y0001563393D02*
X0000333267Y0001556855D01*
X0000337901Y0001545669D01*
X0000327749Y0001545669D01*
X0000324803Y0001546255D01*
X0000321856Y0001545669D01*
X0000321856Y0001545669D01*
X0000313128Y0001543933D01*
X0000303231Y0001537320D01*
X0000301561Y0001534821D01*
X0000256516Y0001489776D01*
X0000256516Y0001489776D01*
X0000177400Y0001410660D01*
X0000173182Y0001431866D01*
X0000160260Y0001451205D01*
X0000147697Y0001459600D01*
X0000152809Y0001462000D01*
X0000168174Y0001478861D01*
X0000174861Y0001495004D01*
X0000170084Y0001504055D01*
X0000123110Y0001504055D01*
X0000123110Y0001503267D01*
X0000113110Y0001503267D01*
X0000113110Y0001504055D01*
X0000112322Y0001504055D01*
X0000112322Y0001514055D01*
X0000113110Y0001514055D01*
X0000113110Y0001514842D01*
X0000123110Y0001514842D01*
X0000123110Y0001514055D01*
X0000170084Y0001514055D01*
X0000174861Y0001523105D01*
X0000168174Y0001539248D01*
X0000152809Y0001556109D01*
X0000147697Y0001558510D01*
X0000160260Y0001566904D01*
X0000168432Y0001579133D01*
X0000317527Y0001579133D01*
X0000333267Y0001563393D01*
G04 #@! TD*
G04 next file*
G04 #@! TF.GenerationSoftware,KiCad,Pcbnew,(5.0.0)*
G04 #@! TF.CreationDate,2018-09-18T20:25:08+02:00*
G04 #@! TF.ProjectId,pcb_relay_main,7063625F72656C61795F6D61696E2E6B,rev?*
G04 #@! TF.SameCoordinates,PXeb14aa0PY7f13bd0*
G04 #@! TF.FileFunction,Copper,L2,Bot,Signal*
G04 #@! TF.FilePolarity,Positive*
G04 Gerber Fmt 4.6, Leading zero omitted, Abs format (unit mm)*
G04 Created by KiCad (PCBNEW (5.0.0)) date 09/18/18 20:25:08*
G01*
G04 APERTURE LIST*
G04 #@! TA.AperFunction,ComponentPad*
G04 #@! TD*
G04 #@! TA.AperFunction,ComponentPad*
G04 #@! TD*
G04 #@! TA.AperFunction,ViaPad*
G04 #@! TD*
G04 #@! TA.AperFunction,Conductor*
G04 #@! TD*
G04 #@! TA.AperFunction,Conductor*
G04 #@! TD*
G04 APERTURE END LIST*
D35*
G04 #@! TO.P,J3,10*
G04 #@! TO.N,GND*
X0000787401Y0002244094D02*
X0001318897Y0001275196D03*
G04 #@! TO.P,J3,9*
G04 #@! TO.N,RA5*
X0001318897Y0001375196D03*
G04 #@! TO.P,J3,8*
G04 #@! TO.N,RA4*
X0001318897Y0001475196D03*
G04 #@! TO.P,J3,7*
G04 #@! TO.N,Net-(J3-Pad7)*
X0001318897Y0001575196D03*
G04 #@! TO.P,J3,6*
G04 #@! TO.N,Net-(J3-Pad6)*
X0001318897Y0001675196D03*
G04 #@! TO.P,J3,5*
G04 #@! TO.N,Net-(J3-Pad5)*
X0001318897Y0001775196D03*
G04 #@! TO.P,J3,4*
G04 #@! TO.N,Net-(J3-Pad4)*
X0001318897Y0001875196D03*
G04 #@! TO.P,J3,3*
G04 #@! TO.N,ICSPCLK*
X0001318897Y0001975196D03*
G04 #@! TO.P,J3,2*
G04 #@! TO.N,ICSPDAT*
X0001318897Y0002075196D03*
D36*
G04 #@! TO.P,J3,1*
G04 #@! TO.N,+5V*
X0001318897Y0002175196D03*
G04 #@! TD*
D35*
G04 #@! TO.P,J1,5*
G04 #@! TO.N,ICSPCLK*
X0000846456Y0001709055D03*
G04 #@! TO.P,J1,4*
G04 #@! TO.N,ICSPDAT*
X0000846456Y0001609055D03*
G04 #@! TO.P,J1,3*
G04 #@! TO.N,GND*
X0000846456Y0001509055D03*
G04 #@! TO.P,J1,2*
G04 #@! TO.N,+5V*
X0000846456Y0001409055D03*
D36*
G04 #@! TO.P,J1,1*
G04 #@! TO.N,VPP*
X0000846456Y0001309055D03*
G04 #@! TD*
D37*
G04 #@! TO.N,GND*
X0000964566Y0001820866D03*
X0001082677Y0001860236D03*
X0001053149Y0001564960D03*
X0000846456Y0001820866D03*
X0001053149Y0001279527D03*
X0001033464Y0002125984D03*
G04 #@! TO.N,ICSPCLK*
X0001171259Y0001564960D03*
G04 #@! TO.N,ICSPDAT*
X0001102362Y0001564960D03*
G04 #@! TO.N,VPP*
X0001122047Y0001515748D03*
G04 #@! TD*
D38*
G04 #@! TO.N,GND*
X0000964566Y0001820866D02*
X0000942295Y0001820866D01*
X0000942295Y0001820866D02*
X0000846456Y0001820866D01*
X0001003937Y0001860236D02*
X0000964566Y0001820866D01*
X0001082677Y0001860236D02*
X0001003937Y0001860236D01*
G04 #@! TO.N,ICSPCLK*
X0001027165Y0001709055D02*
X0001155511Y0001580708D01*
X0001155511Y0001580708D02*
X0001171259Y0001564960D01*
X0000846456Y0001709055D02*
X0001027165Y0001709055D01*
G04 #@! TO.N,ICSPDAT*
X0000846456Y0001609055D02*
X0001058267Y0001609055D01*
X0001086614Y0001580708D02*
X0001102362Y0001564960D01*
X0001058267Y0001609055D02*
X0001086614Y0001580708D01*
G04 #@! TO.N,VPP*
X0001003937Y0001466535D02*
X0000846456Y0001309055D01*
X0001122047Y0001515748D02*
X0001053149Y0001515748D01*
X0001053149Y0001515748D02*
X0001003937Y0001466535D01*
G04 #@! TD*
D39*
G04 #@! TO.N,GND*
G36*
X0001259943Y0002208661D02*
X0001259943Y0002141732D01*
X0001261883Y0002131977D01*
X0001267409Y0002123708D01*
X0001275678Y0002118182D01*
X0001277465Y0002117827D01*
X0001276747Y0002117347D01*
X0001263825Y0002098008D01*
X0001259287Y0002075196D01*
X0001263825Y0002052385D01*
X0001276747Y0002033046D01*
X0001288494Y0002025196D01*
X0001276747Y0002017347D01*
X0001263825Y0001998008D01*
X0001259287Y0001975196D01*
X0001263825Y0001952385D01*
X0001276747Y0001933046D01*
X0001288494Y0001925196D01*
X0001276747Y0001917347D01*
X0001263825Y0001898008D01*
X0001259287Y0001875196D01*
X0001263825Y0001852385D01*
X0001276747Y0001833046D01*
X0001288494Y0001825196D01*
X0001276747Y0001817347D01*
X0001263825Y0001798008D01*
X0001259287Y0001775196D01*
X0001263825Y0001752385D01*
X0001276747Y0001733046D01*
X0001288494Y0001725196D01*
X0001276747Y0001717347D01*
X0001263825Y0001698008D01*
X0001259287Y0001675196D01*
X0001263825Y0001652385D01*
X0001276747Y0001633046D01*
X0001288494Y0001625196D01*
X0001276747Y0001617347D01*
X0001263825Y0001598008D01*
X0001259287Y0001575196D01*
X0001263825Y0001552385D01*
X0001276747Y0001533046D01*
X0001288494Y0001525196D01*
X0001276747Y0001517347D01*
X0001263825Y0001498008D01*
X0001259287Y0001475196D01*
X0001263825Y0001452385D01*
X0001276747Y0001433046D01*
X0001288494Y0001425196D01*
X0001276747Y0001417347D01*
X0001263825Y0001398008D01*
X0001259287Y0001375196D01*
X0001263825Y0001352385D01*
X0001276747Y0001333046D01*
X0001289310Y0001324651D01*
X0001284198Y0001322251D01*
X0001268832Y0001305390D01*
X0001262146Y0001289247D01*
X0001266923Y0001280196D01*
X0001313897Y0001280196D01*
X0001313897Y0001280984D01*
X0001323897Y0001280984D01*
X0001323897Y0001280196D01*
X0001324685Y0001280196D01*
X0001324685Y0001270196D01*
X0001323897Y0001270196D01*
X0001323897Y0001269409D01*
X0001313897Y0001269409D01*
X0001313897Y0001270196D01*
X0001266923Y0001270196D01*
X0001262146Y0001261146D01*
X0001268832Y0001245002D01*
X0001284198Y0001228142D01*
X0001301788Y0001219881D01*
X0000816338Y0001219881D01*
X0000816338Y0001250100D01*
X0000879921Y0001250100D01*
X0000889675Y0001252041D01*
X0000897945Y0001257566D01*
X0000903470Y0001265836D01*
X0000905411Y0001275590D01*
X0000905411Y0001325694D01*
X0001027178Y0001447461D01*
X0001027178Y0001447461D01*
X0001065543Y0001485826D01*
X0001094342Y0001485826D01*
X0001098965Y0001481203D01*
X0001113941Y0001475000D01*
X0001130152Y0001475000D01*
X0001145129Y0001481203D01*
X0001156591Y0001492666D01*
X0001162795Y0001507642D01*
X0001162795Y0001523853D01*
X0001162541Y0001524466D01*
X0001163154Y0001524212D01*
X0001179364Y0001524212D01*
X0001194341Y0001530416D01*
X0001205804Y0001541878D01*
X0001212007Y0001556855D01*
X0001212007Y0001573065D01*
X0001205804Y0001588042D01*
X0001194341Y0001599505D01*
X0001179364Y0001605708D01*
X0001172826Y0001605708D01*
X0001050406Y0001728128D01*
X0001048737Y0001730627D01*
X0001038839Y0001737240D01*
X0001030112Y0001738976D01*
X0001030111Y0001738976D01*
X0001027165Y0001739562D01*
X0001024218Y0001738976D01*
X0000896778Y0001738976D01*
X0000888607Y0001751205D01*
X0000869268Y0001764127D01*
X0000852214Y0001767519D01*
X0000840698Y0001767519D01*
X0000823644Y0001764127D01*
X0000816338Y0001759245D01*
X0000816338Y0002058693D01*
X0000893307Y0002058693D01*
X0000893307Y0002041700D01*
X0000899810Y0002025999D01*
X0000911826Y0002013983D01*
X0000927526Y0002007480D01*
X0000944520Y0002007480D01*
X0000960220Y0002013983D01*
X0000972236Y0002025999D01*
X0000978740Y0002041700D01*
X0000978740Y0002058693D01*
X0001066535Y0002058693D01*
X0001066535Y0002041700D01*
X0001073038Y0002025999D01*
X0001085055Y0002013983D01*
X0001100755Y0002007480D01*
X0001117748Y0002007480D01*
X0001133448Y0002013983D01*
X0001145465Y0002025999D01*
X0001151968Y0002041700D01*
X0001151968Y0002058693D01*
X0001145465Y0002074393D01*
X0001133448Y0002086410D01*
X0001117748Y0002092913D01*
X0001100755Y0002092913D01*
X0001085055Y0002086410D01*
X0001073038Y0002074393D01*
X0001066535Y0002058693D01*
X0000978740Y0002058693D01*
X0000972236Y0002074393D01*
X0000960220Y0002086410D01*
X0000944520Y0002092913D01*
X0000927526Y0002092913D01*
X0000911826Y0002086410D01*
X0000899810Y0002074393D01*
X0000893307Y0002058693D01*
X0000816338Y0002058693D01*
X0000816338Y0002215157D01*
X0001261235Y0002215157D01*
X0001259943Y0002208661D01*
X0001259943Y0002208661D01*
G37*
X0001259943Y0002208661D02*
X0001259943Y0002141732D01*
X0001261883Y0002131977D01*
X0001267409Y0002123708D01*
X0001275678Y0002118182D01*
X0001277465Y0002117827D01*
X0001276747Y0002117347D01*
X0001263825Y0002098008D01*
X0001259287Y0002075196D01*
X0001263825Y0002052385D01*
X0001276747Y0002033046D01*
X0001288494Y0002025196D01*
X0001276747Y0002017347D01*
X0001263825Y0001998008D01*
X0001259287Y0001975196D01*
X0001263825Y0001952385D01*
X0001276747Y0001933046D01*
X0001288494Y0001925196D01*
X0001276747Y0001917347D01*
X0001263825Y0001898008D01*
X0001259287Y0001875196D01*
X0001263825Y0001852385D01*
X0001276747Y0001833046D01*
X0001288494Y0001825196D01*
X0001276747Y0001817347D01*
X0001263825Y0001798008D01*
X0001259287Y0001775196D01*
X0001263825Y0001752385D01*
X0001276747Y0001733046D01*
X0001288494Y0001725196D01*
X0001276747Y0001717347D01*
X0001263825Y0001698008D01*
X0001259287Y0001675196D01*
X0001263825Y0001652385D01*
X0001276747Y0001633046D01*
X0001288494Y0001625196D01*
X0001276747Y0001617347D01*
X0001263825Y0001598008D01*
X0001259287Y0001575196D01*
X0001263825Y0001552385D01*
X0001276747Y0001533046D01*
X0001288494Y0001525196D01*
X0001276747Y0001517347D01*
X0001263825Y0001498008D01*
X0001259287Y0001475196D01*
X0001263825Y0001452385D01*
X0001276747Y0001433046D01*
X0001288494Y0001425196D01*
X0001276747Y0001417347D01*
X0001263825Y0001398008D01*
X0001259287Y0001375196D01*
X0001263825Y0001352385D01*
X0001276747Y0001333046D01*
X0001289310Y0001324651D01*
X0001284198Y0001322251D01*
X0001268832Y0001305390D01*
X0001262146Y0001289247D01*
X0001266923Y0001280196D01*
X0001313897Y0001280196D01*
X0001313897Y0001280984D01*
X0001323897Y0001280984D01*
X0001323897Y0001280196D01*
X0001324685Y0001280196D01*
X0001324685Y0001270196D01*
X0001323897Y0001270196D01*
X0001323897Y0001269409D01*
X0001313897Y0001269409D01*
X0001313897Y0001270196D01*
X0001266923Y0001270196D01*
X0001262146Y0001261146D01*
X0001268832Y0001245002D01*
X0001284198Y0001228142D01*
X0001301788Y0001219881D01*
X0000816338Y0001219881D01*
X0000816338Y0001250100D01*
X0000879921Y0001250100D01*
X0000889675Y0001252041D01*
X0000897945Y0001257566D01*
X0000903470Y0001265836D01*
X0000905411Y0001275590D01*
X0000905411Y0001325694D01*
X0001027178Y0001447461D01*
X0001027178Y0001447461D01*
X0001065543Y0001485826D01*
X0001094342Y0001485826D01*
X0001098965Y0001481203D01*
X0001113941Y0001475000D01*
X0001130152Y0001475000D01*
X0001145129Y0001481203D01*
X0001156591Y0001492666D01*
X0001162795Y0001507642D01*
X0001162795Y0001523853D01*
X0001162541Y0001524466D01*
X0001163154Y0001524212D01*
X0001179364Y0001524212D01*
X0001194341Y0001530416D01*
X0001205804Y0001541878D01*
X0001212007Y0001556855D01*
X0001212007Y0001573065D01*
X0001205804Y0001588042D01*
X0001194341Y0001599505D01*
X0001179364Y0001605708D01*
X0001172826Y0001605708D01*
X0001050406Y0001728128D01*
X0001048737Y0001730627D01*
X0001038839Y0001737240D01*
X0001030112Y0001738976D01*
X0001030111Y0001738976D01*
X0001027165Y0001739562D01*
X0001024218Y0001738976D01*
X0000896778Y0001738976D01*
X0000888607Y0001751205D01*
X0000869268Y0001764127D01*
X0000852214Y0001767519D01*
X0000840698Y0001767519D01*
X0000823644Y0001764127D01*
X0000816338Y0001759245D01*
X0000816338Y0002058693D01*
X0000893307Y0002058693D01*
X0000893307Y0002041700D01*
X0000899810Y0002025999D01*
X0000911826Y0002013983D01*
X0000927526Y0002007480D01*
X0000944520Y0002007480D01*
X0000960220Y0002013983D01*
X0000972236Y0002025999D01*
X0000978740Y0002041700D01*
X0000978740Y0002058693D01*
X0001066535Y0002058693D01*
X0001066535Y0002041700D01*
X0001073038Y0002025999D01*
X0001085055Y0002013983D01*
X0001100755Y0002007480D01*
X0001117748Y0002007480D01*
X0001133448Y0002013983D01*
X0001145465Y0002025999D01*
X0001151968Y0002041700D01*
X0001151968Y0002058693D01*
X0001145465Y0002074393D01*
X0001133448Y0002086410D01*
X0001117748Y0002092913D01*
X0001100755Y0002092913D01*
X0001085055Y0002086410D01*
X0001073038Y0002074393D01*
X0001066535Y0002058693D01*
X0000978740Y0002058693D01*
X0000972236Y0002074393D01*
X0000960220Y0002086410D01*
X0000944520Y0002092913D01*
X0000927526Y0002092913D01*
X0000911826Y0002086410D01*
X0000899810Y0002074393D01*
X0000893307Y0002058693D01*
X0000816338Y0002058693D01*
X0000816338Y0002215157D01*
X0001261235Y0002215157D01*
X0001259943Y0002208661D01*
G36*
X0001061614Y0001563393D02*
X0001061614Y0001556855D01*
X0001066247Y0001545669D01*
X0001056096Y0001545669D01*
X0001053149Y0001546255D01*
X0001050202Y0001545669D01*
X0001050202Y0001545669D01*
X0001041474Y0001543933D01*
X0001031577Y0001537320D01*
X0001029908Y0001534821D01*
X0000984863Y0001489776D01*
X0000984863Y0001489776D01*
X0000905747Y0001410660D01*
X0000901529Y0001431866D01*
X0000888607Y0001451205D01*
X0000876044Y0001459600D01*
X0000881155Y0001462000D01*
X0000896521Y0001478861D01*
X0000903207Y0001495004D01*
X0000898431Y0001504055D01*
X0000851456Y0001504055D01*
X0000851456Y0001503267D01*
X0000841456Y0001503267D01*
X0000841456Y0001504055D01*
X0000840669Y0001504055D01*
X0000840669Y0001514055D01*
X0000841456Y0001514055D01*
X0000841456Y0001514842D01*
X0000851456Y0001514842D01*
X0000851456Y0001514055D01*
X0000898431Y0001514055D01*
X0000903207Y0001523105D01*
X0000896521Y0001539248D01*
X0000881155Y0001556109D01*
X0000876044Y0001558510D01*
X0000888607Y0001566904D01*
X0000896778Y0001579133D01*
X0001045873Y0001579133D01*
X0001061614Y0001563393D01*
X0001061614Y0001563393D01*
G37*
X0001061614Y0001563393D02*
X0001061614Y0001556855D01*
X0001066247Y0001545669D01*
X0001056096Y0001545669D01*
X0001053149Y0001546255D01*
X0001050202Y0001545669D01*
X0001050202Y0001545669D01*
X0001041474Y0001543933D01*
X0001031577Y0001537320D01*
X0001029908Y0001534821D01*
X0000984863Y0001489776D01*
X0000984863Y0001489776D01*
X0000905747Y0001410660D01*
X0000901529Y0001431866D01*
X0000888607Y0001451205D01*
X0000876044Y0001459600D01*
X0000881155Y0001462000D01*
X0000896521Y0001478861D01*
X0000903207Y0001495004D01*
X0000898431Y0001504055D01*
X0000851456Y0001504055D01*
X0000851456Y0001503267D01*
X0000841456Y0001503267D01*
X0000841456Y0001504055D01*
X0000840669Y0001504055D01*
X0000840669Y0001514055D01*
X0000841456Y0001514055D01*
X0000841456Y0001514842D01*
X0000851456Y0001514842D01*
X0000851456Y0001514055D01*
X0000898431Y0001514055D01*
X0000903207Y0001523105D01*
X0000896521Y0001539248D01*
X0000881155Y0001556109D01*
X0000876044Y0001558510D01*
X0000888607Y0001566904D01*
X0000896778Y0001579133D01*
X0001045873Y0001579133D01*
X0001061614Y0001563393D01*
G04 #@! TD*
M02*