%MOIN*%
%OFA0B0*%
%FSLAX46Y46*%
%IPPOS*%
%LPD*%
%ADD10C,0.0047244094488188976*%
%ADD11C,0.004921259842519685*%
%ADD22C,0.0047244094488188976*%
%ADD23C,0.004921259842519685*%
%ADD24C,0.0047244094488188976*%
%ADD25C,0.004921259842519685*%
%ADD26C,0.0047244094488188976*%
%ADD27C,0.004921259842519685*%
G01*
D10*
X0000642913Y0001085826D02*
X0000590551Y0001085826D01*
X0000642913Y0001033464D02*
X0000642913Y0001085826D01*
X0000642913Y0000983464D02*
X0000538188Y0000983464D01*
X0000538188Y0000983464D02*
X0000538188Y0000081102D01*
X0000642913Y0000983464D02*
X0000642913Y0000081102D01*
X0000642913Y0000081102D02*
X0000538188Y0000081102D01*
D11*
X0000520716Y0001069553D02*
X0000534776Y0001069553D01*
X0000537589Y0001070491D01*
X0000539463Y0001072365D01*
X0000540401Y0001075178D01*
X0000540401Y0001077052D01*
X0000520716Y0001062054D02*
X0000520716Y0001049868D01*
X0000528215Y0001056430D01*
X0000528215Y0001053618D01*
X0000529152Y0001051743D01*
X0000530089Y0001050806D01*
X0000531964Y0001049868D01*
X0000536651Y0001049868D01*
X0000538526Y0001050806D01*
X0000539463Y0001051743D01*
X0000540401Y0001053618D01*
X0000540401Y0001059242D01*
X0000539463Y0001061117D01*
X0000538526Y0001062054D01*
G04 next file*
G04 #@! TF.GenerationSoftware,KiCad,Pcbnew,(5.0.0)*
G04 #@! TF.CreationDate,2018-09-18T20:25:08+02:00*
G04 #@! TF.ProjectId,pcb_relay_main,7063625F72656C61795F6D61696E2E6B,rev?*
G04 #@! TF.SameCoordinates,PXeb14aa0PY7f13bd0*
G04 #@! TF.FileFunction,Legend,Bot*
G04 #@! TF.FilePolarity,Positive*
G04 Gerber Fmt 4.6, Leading zero omitted, Abs format (unit mm)*
G04 Created by KiCad (PCBNEW (5.0.0)) date 09/18/18 20:25:08*
G01*
G04 APERTURE LIST*
G04 APERTURE END LIST*
D22*
G04 #@! TO.C,J3*
X0001371259Y0001085826D02*
X0001318897Y0001085826D01*
X0001371259Y0001033464D02*
X0001371259Y0001085826D01*
X0001371259Y0000983464D02*
X0001266535Y0000983464D01*
X0001266535Y0000983464D02*
X0001266535Y0000081102D01*
X0001371259Y0000983464D02*
X0001371259Y0000081102D01*
X0001371259Y0000081102D02*
X0001266535Y0000081102D01*
D23*
X0001249062Y0001069553D02*
X0001263123Y0001069553D01*
X0001265935Y0001070491D01*
X0001267810Y0001072365D01*
X0001268747Y0001075178D01*
X0001268747Y0001077052D01*
X0001249062Y0001062054D02*
X0001249062Y0001049868D01*
X0001256561Y0001056430D01*
X0001256561Y0001053618D01*
X0001257499Y0001051743D01*
X0001258436Y0001050806D01*
X0001260311Y0001049868D01*
X0001264998Y0001049868D01*
X0001266872Y0001050806D01*
X0001267810Y0001051743D01*
X0001268747Y0001053618D01*
X0001268747Y0001059242D01*
X0001267810Y0001061117D01*
X0001266872Y0001062054D01*
G04 #@! TD*
G04 next file*
G04 #@! TF.GenerationSoftware,KiCad,Pcbnew,(5.0.0)*
G04 #@! TF.CreationDate,2018-09-18T20:25:08+02:00*
G04 #@! TF.ProjectId,pcb_relay_main,7063625F72656C61795F6D61696E2E6B,rev?*
G04 #@! TF.SameCoordinates,PXeb14aa0PY7f13bd0*
G04 #@! TF.FileFunction,Legend,Bot*
G04 #@! TF.FilePolarity,Positive*
G04 Gerber Fmt 4.6, Leading zero omitted, Abs format (unit mm)*
G04 Created by KiCad (PCBNEW (5.0.0)) date 09/18/18 20:25:08*
G01*
G04 APERTURE LIST*
G04 APERTURE END LIST*
D24*
G04 #@! TO.C,J3*
X0000642913Y0002227559D02*
X0000590551Y0002227559D01*
X0000642913Y0002175196D02*
X0000642913Y0002227559D01*
X0000642913Y0002125196D02*
X0000538188Y0002125196D01*
X0000538188Y0002125196D02*
X0000538188Y0001222834D01*
X0000642913Y0002125196D02*
X0000642913Y0001222834D01*
X0000642913Y0001222834D02*
X0000538188Y0001222834D01*
D25*
X0000520716Y0002211286D02*
X0000534776Y0002211286D01*
X0000537589Y0002212223D01*
X0000539463Y0002214098D01*
X0000540401Y0002216910D01*
X0000540401Y0002218785D01*
X0000520716Y0002203787D02*
X0000520716Y0002191601D01*
X0000528215Y0002198162D01*
X0000528215Y0002195350D01*
X0000529152Y0002193475D01*
X0000530089Y0002192538D01*
X0000531964Y0002191601D01*
X0000536651Y0002191601D01*
X0000538526Y0002192538D01*
X0000539463Y0002193475D01*
X0000540401Y0002195350D01*
X0000540401Y0002200974D01*
X0000539463Y0002202849D01*
X0000538526Y0002203787D01*
G04 #@! TD*
G04 next file*
G04 #@! TF.GenerationSoftware,KiCad,Pcbnew,(5.0.0)*
G04 #@! TF.CreationDate,2018-09-18T20:25:08+02:00*
G04 #@! TF.ProjectId,pcb_relay_main,7063625F72656C61795F6D61696E2E6B,rev?*
G04 #@! TF.SameCoordinates,PXeb14aa0PY7f13bd0*
G04 #@! TF.FileFunction,Legend,Bot*
G04 #@! TF.FilePolarity,Positive*
G04 Gerber Fmt 4.6, Leading zero omitted, Abs format (unit mm)*
G04 Created by KiCad (PCBNEW (5.0.0)) date 09/18/18 20:25:08*
G01*
G04 APERTURE LIST*
G04 APERTURE END LIST*
D26*
G04 #@! TO.C,J3*
X0001371259Y0002227559D02*
X0001318897Y0002227559D01*
X0001371259Y0002175196D02*
X0001371259Y0002227559D01*
X0001371259Y0002125196D02*
X0001266535Y0002125196D01*
X0001266535Y0002125196D02*
X0001266535Y0001222834D01*
X0001371259Y0002125196D02*
X0001371259Y0001222834D01*
X0001371259Y0001222834D02*
X0001266535Y0001222834D01*
D27*
X0001249062Y0002211286D02*
X0001263123Y0002211286D01*
X0001265935Y0002212223D01*
X0001267810Y0002214098D01*
X0001268747Y0002216910D01*
X0001268747Y0002218785D01*
X0001249062Y0002203787D02*
X0001249062Y0002191601D01*
X0001256561Y0002198162D01*
X0001256561Y0002195350D01*
X0001257499Y0002193475D01*
X0001258436Y0002192538D01*
X0001260311Y0002191601D01*
X0001264998Y0002191601D01*
X0001266872Y0002192538D01*
X0001267810Y0002193475D01*
X0001268747Y0002195350D01*
X0001268747Y0002200974D01*
X0001267810Y0002202849D01*
X0001266872Y0002203787D01*
G04 #@! TD*
M02*