%
M48
METRIC,000.000
T01C0.40
T02C1.00
T03C0.90
%
T01
X003000Y017250
X006000Y017250
X007750Y025000
X008250Y010750
X008250Y003500
X009000Y018250
X009500Y010750
X010000Y009500
X011250Y010750
X021500Y017250
X024500Y017250
X026250Y025000
X026750Y010750
X026750Y003500
X027500Y018250
X028000Y010750
X028500Y009500
X029750Y010750
X003000Y046250
X006000Y046250
X007750Y054000
X008250Y039750
X008250Y032500
X009000Y047250
X009500Y039750
X010000Y038500
X011250Y039750
X021500Y046250
X024500Y046250
X026250Y054000
X026750Y039750
X026750Y032500
X027500Y047250
X028000Y039750
X028500Y038500
X029750Y039750
T02
X003000Y014410
X003000Y011870
X003000Y009329
X003000Y006789
X003000Y004250
X015000Y026250
X015000Y023710
X015000Y021170
X015000Y018630
X015000Y016090
X015000Y013550
X015000Y011010
X015000Y008469
X015000Y005930
X015000Y003390
X021500Y014410
X021500Y011870
X021500Y009329
X021500Y006789
X021500Y004250
X033500Y026250
X033500Y023710
X033500Y021170
X033500Y018630
X033500Y016090
X033500Y013550
X033500Y011010
X033500Y008469
X033500Y005930
X033500Y003390
X003000Y043410
X003000Y040870
X003000Y038330
X003000Y035790
X003000Y033250
X015000Y055250
X015000Y052710
X015000Y050170
X015000Y047630
X015000Y045090
X015000Y042550
X015000Y040010
X015000Y037470
X015000Y034930
X015000Y032390
X021500Y043410
X021500Y040870
X021500Y038330
X021500Y035790
X021500Y033250
X033500Y055250
X033500Y052710
X033500Y050170
X033500Y047630
X033500Y045090
X033500Y042550
X033500Y040010
X033500Y037470
X033500Y034930
X033500Y032390
T03
X005275Y023075
X009675Y023075
X023775Y023075
X028175Y023075
X005275Y052075
X009675Y052075
X023775Y052075
X028175Y052075
M30