%
M48
METRIC,000.000
T01C0.50
%
T01
X010535Y028250
X009535Y028250
X008535Y028250
X007535Y028250
X006535Y028250
X005535Y028250
X004929Y030000
X005929Y030000
X006929Y030000
X007929Y030000
X008929Y030000
X009929Y030000
X017250Y010857
X017250Y011857
X017250Y012857
X017250Y013857
X017250Y014857
X017250Y015857
X019750Y015428
X019750Y014428
X019750Y013428
X019750Y012428
X019750Y011428
X030035Y028250
X029035Y028250
X028035Y028250
X027035Y028250
X026035Y028250
X025035Y028250
X024429Y030000
X025429Y030000
X026429Y030000
X027429Y030000
X028429Y030000
X029429Y030000
X017250Y041857
X017250Y042857
X017250Y043857
X017250Y044857
X017250Y045857
X017250Y046857
X019750Y045428
X019750Y044428
X019750Y043428
X019750Y042428
M30