%MOIN*%
%OFA0B0*%
%FSLAX44Y44*%
%IPPOS*%
%LPD*%
%ADD10C,0*%
D10*
X00006692Y00006510D02*
X00006692Y00006510D01*
X00006692Y00011023D01*
X00004275Y00011023D01*
X00004261Y00011023D01*
X00004247Y00011024D01*
X00004233Y00011025D01*
X00004219Y00011027D01*
X00004205Y00011030D01*
X00004191Y00011032D01*
X00004177Y00011036D01*
X00004163Y00011039D01*
X00004150Y00011044D01*
X00004136Y00011048D01*
X00004123Y00011054D01*
X00004110Y00011059D01*
X00004098Y00011066D01*
X00004085Y00011072D01*
X00004073Y00011079D01*
X00004061Y00011087D01*
X00004049Y00011095D01*
X00004037Y00011103D01*
X00004026Y00011112D01*
X00004015Y00011121D01*
X00003904Y00011220D01*
X00003870Y00011253D01*
X00003840Y00011291D01*
X00003815Y00011331D01*
X00003796Y00011375D01*
X00003782Y00011420D01*
X00003773Y00011467D01*
X00003770Y00011514D01*
X00003773Y00011562D01*
X00003781Y00011609D01*
X00003795Y00011654D01*
X00003815Y00011698D01*
X00003839Y00011738D01*
X00003869Y00011776D01*
X00003902Y00011810D01*
X00003940Y00011839D01*
X00003980Y00011864D01*
X00004024Y00011883D01*
X00004069Y00011897D01*
X00004116Y00011906D01*
X00004164Y00011909D01*
X00006692Y00011909D01*
X00006692Y00016127D01*
X00006693Y00016141D01*
X00006693Y00016155D01*
X00006695Y00016169D01*
X00006696Y00016183D01*
X00006699Y00016197D01*
X00006701Y00016210D01*
X00006705Y00016224D01*
X00006708Y00016238D01*
X00006712Y00016251D01*
X00006717Y00016264D01*
X00006722Y00016277D01*
X00006728Y00016290D01*
X00006734Y00016303D01*
X00006740Y00016315D01*
X00006747Y00016327D01*
X00006754Y00016339D01*
X00006762Y00016351D01*
X00006770Y00016362D01*
X00006779Y00016373D01*
X00006788Y00016384D01*
X00007181Y00016842D01*
X00007215Y00016876D01*
X00007252Y00016906D01*
X00007292Y00016931D01*
X00007336Y00016952D01*
X00007381Y00016966D01*
X00007428Y00016975D01*
X00007476Y00016979D01*
X00007524Y00016976D01*
X00007571Y00016968D01*
X00007617Y00016954D01*
X00007660Y00016935D01*
X00007702Y00016910D01*
X00007739Y00016881D01*
X00007773Y00016848D01*
X00007803Y00016810D01*
X00007828Y00016769D01*
X00007848Y00016726D01*
X00007862Y00016680D01*
X00007871Y00016633D01*
X00007874Y00016585D01*
X00007874Y00011909D01*
X00009615Y00011909D01*
X00009663Y00011906D01*
X00009709Y00011897D01*
X00009755Y00011883D01*
X00009798Y00011864D01*
X00009839Y00011839D01*
X00009876Y00011810D01*
X00009910Y00011776D01*
X00009939Y00011738D01*
X00009964Y00011698D01*
X00009983Y00011654D01*
X00009997Y00011609D01*
X00010006Y00011562D01*
X00010009Y00011514D01*
X00010006Y00011467D01*
X00009997Y00011420D01*
X00009983Y00011375D01*
X00009963Y00011331D01*
X00009938Y00011291D01*
X00009909Y00011253D01*
X00009875Y00011220D01*
X00009763Y00011121D01*
X00009752Y00011112D01*
X00009741Y00011103D01*
X00009730Y00011095D01*
X00009718Y00011087D01*
X00009706Y00011079D01*
X00009694Y00011072D01*
X00009681Y00011066D01*
X00009668Y00011059D01*
X00009655Y00011054D01*
X00009642Y00011048D01*
X00009629Y00011044D01*
X00009615Y00011039D01*
X00009601Y00011036D01*
X00009588Y00011032D01*
X00009574Y00011030D01*
X00009560Y00011027D01*
X00009546Y00011025D01*
X00009531Y00011024D01*
X00009517Y00011023D01*
X00009503Y00011023D01*
X00007874Y00011023D01*
X00007874Y00006052D01*
X00007871Y00006004D01*
X00007862Y00005957D01*
X00007848Y00005911D01*
X00007828Y00005868D01*
X00007803Y00005827D01*
X00007773Y00005789D01*
X00007739Y00005756D01*
X00007702Y00005726D01*
X00007660Y00005702D01*
X00007617Y00005683D01*
X00007571Y00005669D01*
X00007524Y00005660D01*
X00007476Y00005658D01*
X00007428Y00005661D01*
X00007381Y00005670D01*
X00007336Y00005685D01*
X00007292Y00005705D01*
X00007252Y00005731D01*
X00007215Y00005761D01*
X00007181Y00005795D01*
X00006788Y00006253D01*
X00006779Y00006264D01*
X00006770Y00006275D01*
X00006762Y00006286D01*
X00006754Y00006298D01*
X00006747Y00006310D01*
X00006740Y00006322D01*
X00006734Y00006334D01*
X00006728Y00006347D01*
X00006722Y00006360D01*
X00006717Y00006373D01*
X00006712Y00006386D01*
X00006708Y00006399D01*
X00006705Y00006413D01*
X00006701Y00006426D01*
X00006699Y00006440D01*
X00006696Y00006454D01*
X00006695Y00006468D01*
X00006693Y00006482D01*
X00006693Y00006496D01*
X00006692Y00006510D01*
X00000590Y00011023D02*
X00000590Y00011023D01*
X00000590Y00000492D01*
X00006692Y00000492D01*
X00006692Y00004021D01*
X00006693Y00004035D01*
X00006693Y00004049D01*
X00006695Y00004063D01*
X00006696Y00004077D01*
X00006699Y00004090D01*
X00006701Y00004104D01*
X00006705Y00004118D01*
X00006708Y00004131D01*
X00006712Y00004145D01*
X00006717Y00004158D01*
X00006722Y00004171D01*
X00006728Y00004184D01*
X00006734Y00004196D01*
X00006740Y00004209D01*
X00006747Y00004221D01*
X00006754Y00004233D01*
X00006762Y00004244D01*
X00006770Y00004256D01*
X00006779Y00004267D01*
X00006788Y00004278D01*
X00007181Y00004735D01*
X00007215Y00004770D01*
X00007252Y00004800D01*
X00007292Y00004825D01*
X00007336Y00004845D01*
X00007381Y00004860D01*
X00007428Y00004869D01*
X00007476Y00004873D01*
X00007524Y00004870D01*
X00007571Y00004862D01*
X00007617Y00004848D01*
X00007660Y00004829D01*
X00007702Y00004804D01*
X00007739Y00004775D01*
X00007773Y00004741D01*
X00007803Y00004704D01*
X00007828Y00004663D01*
X00007848Y00004619D01*
X00007862Y00004574D01*
X00007871Y00004527D01*
X00007874Y00004479D01*
X00007874Y00000492D01*
X00013976Y00000492D01*
X00013976Y00011023D01*
X00011953Y00011023D01*
X00011938Y00011023D01*
X00011924Y00011024D01*
X00011910Y00011025D01*
X00011896Y00011027D01*
X00011882Y00011030D01*
X00011868Y00011032D01*
X00011854Y00011036D01*
X00011841Y00011039D01*
X00011827Y00011044D01*
X00011814Y00011048D01*
X00011800Y00011054D01*
X00011787Y00011059D01*
X00011775Y00011066D01*
X00011762Y00011072D01*
X00011750Y00011079D01*
X00011738Y00011087D01*
X00011726Y00011095D01*
X00011715Y00011103D01*
X00011703Y00011112D01*
X00011693Y00011121D01*
X00011581Y00011220D01*
X00011547Y00011253D01*
X00011517Y00011291D01*
X00011493Y00011331D01*
X00011473Y00011375D01*
X00011459Y00011420D01*
X00011450Y00011467D01*
X00011447Y00011514D01*
X00011450Y00011562D01*
X00011458Y00011609D01*
X00011472Y00011654D01*
X00011492Y00011698D01*
X00011516Y00011738D01*
X00011546Y00011776D01*
X00011579Y00011810D01*
X00011617Y00011839D01*
X00011657Y00011864D01*
X00011701Y00011883D01*
X00011746Y00011897D01*
X00011793Y00011906D01*
X00011841Y00011909D01*
X00013976Y00011909D01*
X00013976Y00022440D01*
X00007874Y00022440D01*
X00007874Y00018158D01*
X00007871Y00018110D01*
X00007862Y00018063D01*
X00007848Y00018018D01*
X00007828Y00017974D01*
X00007803Y00017933D01*
X00007773Y00017896D01*
X00007739Y00017862D01*
X00007702Y00017833D01*
X00007660Y00017808D01*
X00007617Y00017789D01*
X00007571Y00017775D01*
X00007524Y00017767D01*
X00007476Y00017764D01*
X00007428Y00017768D01*
X00007381Y00017777D01*
X00007336Y00017792D01*
X00007292Y00017812D01*
X00007252Y00017837D01*
X00007215Y00017867D01*
X00007181Y00017901D01*
X00006788Y00018359D01*
X00006779Y00018370D01*
X00006770Y00018381D01*
X00006762Y00018392D01*
X00006754Y00018404D01*
X00006747Y00018416D01*
X00006740Y00018428D01*
X00006734Y00018441D01*
X00006728Y00018453D01*
X00006722Y00018466D01*
X00006717Y00018479D01*
X00006712Y00018492D01*
X00006708Y00018506D01*
X00006705Y00018519D01*
X00006701Y00018533D01*
X00006699Y00018546D01*
X00006696Y00018560D01*
X00006695Y00018574D01*
X00006693Y00018588D01*
X00006693Y00018602D01*
X00006692Y00018616D01*
X00006692Y00022440D01*
X00000590Y00022440D01*
X00000590Y00011909D01*
X00001938Y00011909D01*
X00001985Y00011906D01*
X00002032Y00011897D01*
X00002078Y00011883D01*
X00002121Y00011864D01*
X00002162Y00011839D01*
X00002199Y00011810D01*
X00002233Y00011776D01*
X00002262Y00011738D01*
X00002287Y00011698D01*
X00002306Y00011654D01*
X00002320Y00011609D01*
X00002329Y00011562D01*
X00002332Y00011514D01*
X00002329Y00011467D01*
X00002320Y00011420D01*
X00002306Y00011375D01*
X00002286Y00011331D01*
X00002261Y00011291D01*
X00002232Y00011253D01*
X00002198Y00011220D01*
X00002086Y00011121D01*
X00002075Y00011112D01*
X00002064Y00011103D01*
X00002053Y00011095D01*
X00002041Y00011087D01*
X00002029Y00011079D01*
X00002016Y00011072D01*
X00002004Y00011066D01*
X00001991Y00011059D01*
X00001978Y00011054D01*
X00001965Y00011048D01*
X00001952Y00011044D01*
X00001938Y00011039D01*
X00001924Y00011036D01*
X00001910Y00011032D01*
X00001897Y00011030D01*
X00001883Y00011027D01*
X00001868Y00011025D01*
X00001854Y00011024D01*
X00001840Y00011023D01*
X00001826Y00011023D01*
X00000590Y00011023D01*
M02*