G04 #@! TF.GenerationSoftware,KiCad,Pcbnew,(5.0.0)*
G04 #@! TF.CreationDate,2018-09-18T20:25:08+02:00*
G04 #@! TF.ProjectId,pcb_relay_main,7063625F72656C61795F6D61696E2E6B,rev?*
G04 #@! TF.SameCoordinates,PXeb14aa0PY7f13bd0*
G04 #@! TF.FileFunction,Soldermask,Top*
G04 #@! TF.FilePolarity,Negative*
%FSLAX46Y46*%
G04 Gerber Fmt 4.6, Leading zero omitted, Abs format (unit mm)*
G04 Created by KiCad (PCBNEW (5.0.0)) date 09/18/18 20:25:08*
%MOMM*%
%LPD*%
G01*
G04 APERTURE LIST*
%ADD10O,2.100000X2.100000*%
%ADD11R,2.100000X2.100000*%
%ADD12R,1.150000X1.200000*%
%ADD13C,1.300000*%
%ADD14R,2.400000X2.900000*%
%ADD15R,0.900000X2.700000*%
%ADD16R,0.831800X1.797000*%
G04 APERTURE END LIST*
D10*
G04 #@! TO.C,J3*
X13500000Y-24610000D03*
X13500000Y-22070000D03*
X13500000Y-19530000D03*
X13500000Y-16990000D03*
X13500000Y-14450000D03*
X13500000Y-11910000D03*
X13500000Y-9370000D03*
X13500000Y-6830000D03*
X13500000Y-4290000D03*
D11*
X13500000Y-1750000D03*
G04 #@! TD*
D12*
G04 #@! TO.C,C1*
X8500000Y-12250000D03*
X8500000Y-10750000D03*
G04 #@! TD*
G04 #@! TO.C,C2*
X4500000Y-14500000D03*
X4500000Y-13000000D03*
G04 #@! TD*
G04 #@! TO.C,C3*
X4500000Y-17750000D03*
X4500000Y-16250000D03*
G04 #@! TD*
D10*
G04 #@! TO.C,J1*
X1500000Y-13590000D03*
X1500000Y-16130000D03*
X1500000Y-18670000D03*
X1500000Y-21210000D03*
D11*
X1500000Y-23750000D03*
G04 #@! TD*
D13*
G04 #@! TO.C,J2*
X3775000Y-4925000D03*
X8175000Y-4925000D03*
D14*
X1525000Y-1925000D03*
X1525000Y-7425000D03*
X10425000Y-1925000D03*
X10425000Y-7425000D03*
D15*
X4375000Y-7525000D03*
X5175000Y-7525000D03*
X5975000Y-7525000D03*
X6775000Y-7525000D03*
X7575000Y-7525000D03*
G04 #@! TD*
D16*
G04 #@! TO.C,U1*
X6556900Y-14956000D03*
X7204600Y-14956000D03*
X7852300Y-14956000D03*
X8500000Y-14956000D03*
X9160400Y-14956000D03*
X9808100Y-14956000D03*
X10455800Y-14956000D03*
X10455800Y-20544000D03*
X9808100Y-20544000D03*
X9160400Y-20544000D03*
X8500000Y-20544000D03*
X7865000Y-20544000D03*
X7204600Y-20544000D03*
X6569600Y-20544000D03*
G04 #@! TD*
M02*
