G04 #@! TF.GenerationSoftware,KiCad,Pcbnew,(5.0.0)*
G04 #@! TF.CreationDate,2018-09-18T20:25:08+02:00*
G04 #@! TF.ProjectId,pcb_relay_main,7063625F72656C61795F6D61696E2E6B,rev?*
G04 #@! TF.SameCoordinates,PXeb14aa0PY7f13bd0*
G04 #@! TF.FileFunction,Legend,Top*
G04 #@! TF.FilePolarity,Positive*
%FSLAX46Y46*%
G04 Gerber Fmt 4.6, Leading zero omitted, Abs format (unit mm)*
G04 Created by KiCad (PCBNEW (5.0.0)) date 09/18/18 20:25:08*
%MOMM*%
%LPD*%
G01*
G04 APERTURE LIST*
%ADD10C,0.125000*%
%ADD11C,0.100000*%
%ADD12C,0.150000*%
%ADD13C,0.120000*%
G04 APERTURE END LIST*
D10*
X4152380Y-25285714D02*
X4961904Y-25285714D01*
X5057142Y-25238095D01*
X5104761Y-25190476D01*
X5152380Y-25095238D01*
X5152380Y-24904761D01*
X5104761Y-24809523D01*
X5057142Y-24761904D01*
X4961904Y-24714285D01*
X4152380Y-24714285D01*
D11*
X4100000Y-24725000D02*
X4100000Y-22325000D01*
D10*
X5426190Y-25138095D02*
X5830952Y-25138095D01*
X5878571Y-25114285D01*
X5902380Y-25090476D01*
X5926190Y-25042857D01*
X5926190Y-24947619D01*
X5902380Y-24900000D01*
X5878571Y-24876190D01*
X5830952Y-24852380D01*
X5426190Y-24852380D01*
X5926190Y-24328571D02*
X5688095Y-24495238D01*
X5926190Y-24614285D02*
X5426190Y-24614285D01*
X5426190Y-24423809D01*
X5450000Y-24376190D01*
X5473809Y-24352380D01*
X5521428Y-24328571D01*
X5592857Y-24328571D01*
X5640476Y-24352380D01*
X5664285Y-24376190D01*
X5688095Y-24423809D01*
X5688095Y-24614285D01*
X5926190Y-23852380D02*
X5926190Y-24138095D01*
X5926190Y-23995238D02*
X5426190Y-23995238D01*
X5497619Y-24042857D01*
X5545238Y-24090476D01*
X5569047Y-24138095D01*
X5878571Y-23638095D02*
X5902380Y-23614285D01*
X5926190Y-23638095D01*
X5902380Y-23661904D01*
X5878571Y-23638095D01*
X5926190Y-23638095D01*
X5426190Y-23304761D02*
X5426190Y-23257142D01*
X5450000Y-23209523D01*
X5473809Y-23185714D01*
X5521428Y-23161904D01*
X5616666Y-23138095D01*
X5735714Y-23138095D01*
X5830952Y-23161904D01*
X5878571Y-23185714D01*
X5902380Y-23209523D01*
X5926190Y-23257142D01*
X5926190Y-23304761D01*
X5902380Y-23352380D01*
X5878571Y-23376190D01*
X5830952Y-23400000D01*
X5735714Y-23423809D01*
X5616666Y-23423809D01*
X5521428Y-23400000D01*
X5473809Y-23376190D01*
X5450000Y-23352380D01*
X5426190Y-23304761D01*
X5035714Y-24014285D02*
X5073809Y-24052380D01*
X5111904Y-24166666D01*
X5111904Y-24242857D01*
X5073809Y-24357142D01*
X4997619Y-24433333D01*
X4921428Y-24471428D01*
X4769047Y-24509523D01*
X4654761Y-24509523D01*
X4502380Y-24471428D01*
X4426190Y-24433333D01*
X4350000Y-24357142D01*
X4311904Y-24242857D01*
X4311904Y-24166666D01*
X4350000Y-24052380D01*
X4388095Y-24014285D01*
X4883333Y-23709523D02*
X4883333Y-23328571D01*
X5111904Y-23785714D02*
X4311904Y-23519047D01*
X5111904Y-23252380D01*
X5111904Y-22985714D02*
X4311904Y-22985714D01*
X5111904Y-22528571D01*
X4311904Y-22528571D01*
X2976190Y-21345238D02*
X2976190Y-21583333D01*
X3214285Y-21607142D01*
X3190476Y-21583333D01*
X3166666Y-21535714D01*
X3166666Y-21416666D01*
X3190476Y-21369047D01*
X3214285Y-21345238D01*
X3261904Y-21321428D01*
X3380952Y-21321428D01*
X3428571Y-21345238D01*
X3452380Y-21369047D01*
X3476190Y-21416666D01*
X3476190Y-21535714D01*
X3452380Y-21583333D01*
X3428571Y-21607142D01*
X2976190Y-21178571D02*
X3476190Y-21011904D01*
X2976190Y-20845238D01*
X3000000Y-19130952D02*
X2976190Y-19178571D01*
X2976190Y-19250000D01*
X3000000Y-19321428D01*
X3047619Y-19369047D01*
X3095238Y-19392857D01*
X3190476Y-19416666D01*
X3261904Y-19416666D01*
X3357142Y-19392857D01*
X3404761Y-19369047D01*
X3452380Y-19321428D01*
X3476190Y-19250000D01*
X3476190Y-19202380D01*
X3452380Y-19130952D01*
X3428571Y-19107142D01*
X3261904Y-19107142D01*
X3261904Y-19202380D01*
X3476190Y-18892857D02*
X2976190Y-18892857D01*
X3476190Y-18607142D01*
X2976190Y-18607142D01*
X3476190Y-18369047D02*
X2976190Y-18369047D01*
X2976190Y-18250000D01*
X3000000Y-18178571D01*
X3047619Y-18130952D01*
X3095238Y-18107142D01*
X3190476Y-18083333D01*
X3261904Y-18083333D01*
X3357142Y-18107142D01*
X3404761Y-18130952D01*
X3452380Y-18178571D01*
X3476190Y-18250000D01*
X3476190Y-18369047D01*
X11476190Y-1845238D02*
X11476190Y-2083333D01*
X11714285Y-2107142D01*
X11690476Y-2083333D01*
X11666666Y-2035714D01*
X11666666Y-1916666D01*
X11690476Y-1869047D01*
X11714285Y-1845238D01*
X11761904Y-1821428D01*
X11880952Y-1821428D01*
X11928571Y-1845238D01*
X11952380Y-1869047D01*
X11976190Y-1916666D01*
X11976190Y-2035714D01*
X11952380Y-2083333D01*
X11928571Y-2107142D01*
X11476190Y-1678571D02*
X11976190Y-1511904D01*
X11476190Y-1345238D01*
X11976190Y-4583333D02*
X11738095Y-4750000D01*
X11976190Y-4869047D02*
X11476190Y-4869047D01*
X11476190Y-4678571D01*
X11500000Y-4630952D01*
X11523809Y-4607142D01*
X11571428Y-4583333D01*
X11642857Y-4583333D01*
X11690476Y-4607142D01*
X11714285Y-4630952D01*
X11738095Y-4678571D01*
X11738095Y-4869047D01*
X11928571Y-4083333D02*
X11952380Y-4107142D01*
X11976190Y-4178571D01*
X11976190Y-4226190D01*
X11952380Y-4297619D01*
X11904761Y-4345238D01*
X11857142Y-4369047D01*
X11761904Y-4392857D01*
X11690476Y-4392857D01*
X11595238Y-4369047D01*
X11547619Y-4345238D01*
X11500000Y-4297619D01*
X11476190Y-4226190D01*
X11476190Y-4178571D01*
X11500000Y-4107142D01*
X11523809Y-4083333D01*
X11476190Y-3773809D02*
X11476190Y-3726190D01*
X11500000Y-3678571D01*
X11523809Y-3654761D01*
X11571428Y-3630952D01*
X11666666Y-3607142D01*
X11785714Y-3607142D01*
X11880952Y-3630952D01*
X11928571Y-3654761D01*
X11952380Y-3678571D01*
X11976190Y-3726190D01*
X11976190Y-3773809D01*
X11952380Y-3821428D01*
X11928571Y-3845238D01*
X11880952Y-3869047D01*
X11785714Y-3892857D01*
X11666666Y-3892857D01*
X11571428Y-3869047D01*
X11523809Y-3845238D01*
X11500000Y-3821428D01*
X11476190Y-3773809D01*
X11976190Y-7333333D02*
X11738095Y-7500000D01*
X11976190Y-7619047D02*
X11476190Y-7619047D01*
X11476190Y-7428571D01*
X11500000Y-7380952D01*
X11523809Y-7357142D01*
X11571428Y-7333333D01*
X11642857Y-7333333D01*
X11690476Y-7357142D01*
X11714285Y-7380952D01*
X11738095Y-7428571D01*
X11738095Y-7619047D01*
X11928571Y-6833333D02*
X11952380Y-6857142D01*
X11976190Y-6928571D01*
X11976190Y-6976190D01*
X11952380Y-7047619D01*
X11904761Y-7095238D01*
X11857142Y-7119047D01*
X11761904Y-7142857D01*
X11690476Y-7142857D01*
X11595238Y-7119047D01*
X11547619Y-7095238D01*
X11500000Y-7047619D01*
X11476190Y-6976190D01*
X11476190Y-6928571D01*
X11500000Y-6857142D01*
X11523809Y-6833333D01*
X11976190Y-6357142D02*
X11976190Y-6642857D01*
X11976190Y-6500000D02*
X11476190Y-6500000D01*
X11547619Y-6547619D01*
X11595238Y-6595238D01*
X11619047Y-6642857D01*
X11976190Y-9833333D02*
X11738095Y-10000000D01*
X11976190Y-10119047D02*
X11476190Y-10119047D01*
X11476190Y-9928571D01*
X11500000Y-9880952D01*
X11523809Y-9857142D01*
X11571428Y-9833333D01*
X11642857Y-9833333D01*
X11690476Y-9857142D01*
X11714285Y-9880952D01*
X11738095Y-9928571D01*
X11738095Y-10119047D01*
X11928571Y-9333333D02*
X11952380Y-9357142D01*
X11976190Y-9428571D01*
X11976190Y-9476190D01*
X11952380Y-9547619D01*
X11904761Y-9595238D01*
X11857142Y-9619047D01*
X11761904Y-9642857D01*
X11690476Y-9642857D01*
X11595238Y-9619047D01*
X11547619Y-9595238D01*
X11500000Y-9547619D01*
X11476190Y-9476190D01*
X11476190Y-9428571D01*
X11500000Y-9357142D01*
X11523809Y-9333333D01*
X11523809Y-9142857D02*
X11500000Y-9119047D01*
X11476190Y-9071428D01*
X11476190Y-8952380D01*
X11500000Y-8904761D01*
X11523809Y-8880952D01*
X11571428Y-8857142D01*
X11619047Y-8857142D01*
X11690476Y-8880952D01*
X11976190Y-9166666D01*
X11976190Y-8857142D01*
X11976190Y-12333333D02*
X11738095Y-12500000D01*
X11976190Y-12619047D02*
X11476190Y-12619047D01*
X11476190Y-12428571D01*
X11500000Y-12380952D01*
X11523809Y-12357142D01*
X11571428Y-12333333D01*
X11642857Y-12333333D01*
X11690476Y-12357142D01*
X11714285Y-12380952D01*
X11738095Y-12428571D01*
X11738095Y-12619047D01*
X11928571Y-11833333D02*
X11952380Y-11857142D01*
X11976190Y-11928571D01*
X11976190Y-11976190D01*
X11952380Y-12047619D01*
X11904761Y-12095238D01*
X11857142Y-12119047D01*
X11761904Y-12142857D01*
X11690476Y-12142857D01*
X11595238Y-12119047D01*
X11547619Y-12095238D01*
X11500000Y-12047619D01*
X11476190Y-11976190D01*
X11476190Y-11928571D01*
X11500000Y-11857142D01*
X11523809Y-11833333D01*
X11476190Y-11666666D02*
X11476190Y-11357142D01*
X11666666Y-11523809D01*
X11666666Y-11452380D01*
X11690476Y-11404761D01*
X11714285Y-11380952D01*
X11761904Y-11357142D01*
X11880952Y-11357142D01*
X11928571Y-11380952D01*
X11952380Y-11404761D01*
X11976190Y-11452380D01*
X11976190Y-11595238D01*
X11952380Y-11642857D01*
X11928571Y-11666666D01*
X11976190Y-14833333D02*
X11738095Y-15000000D01*
X11976190Y-15119047D02*
X11476190Y-15119047D01*
X11476190Y-14928571D01*
X11500000Y-14880952D01*
X11523809Y-14857142D01*
X11571428Y-14833333D01*
X11642857Y-14833333D01*
X11690476Y-14857142D01*
X11714285Y-14880952D01*
X11738095Y-14928571D01*
X11738095Y-15119047D01*
X11928571Y-14333333D02*
X11952380Y-14357142D01*
X11976190Y-14428571D01*
X11976190Y-14476190D01*
X11952380Y-14547619D01*
X11904761Y-14595238D01*
X11857142Y-14619047D01*
X11761904Y-14642857D01*
X11690476Y-14642857D01*
X11595238Y-14619047D01*
X11547619Y-14595238D01*
X11500000Y-14547619D01*
X11476190Y-14476190D01*
X11476190Y-14428571D01*
X11500000Y-14357142D01*
X11523809Y-14333333D01*
X11642857Y-13904761D02*
X11976190Y-13904761D01*
X11452380Y-14023809D02*
X11809523Y-14142857D01*
X11809523Y-13833333D01*
X11976190Y-17333333D02*
X11738095Y-17500000D01*
X11976190Y-17619047D02*
X11476190Y-17619047D01*
X11476190Y-17428571D01*
X11500000Y-17380952D01*
X11523809Y-17357142D01*
X11571428Y-17333333D01*
X11642857Y-17333333D01*
X11690476Y-17357142D01*
X11714285Y-17380952D01*
X11738095Y-17428571D01*
X11738095Y-17619047D01*
X11928571Y-16833333D02*
X11952380Y-16857142D01*
X11976190Y-16928571D01*
X11976190Y-16976190D01*
X11952380Y-17047619D01*
X11904761Y-17095238D01*
X11857142Y-17119047D01*
X11761904Y-17142857D01*
X11690476Y-17142857D01*
X11595238Y-17119047D01*
X11547619Y-17095238D01*
X11500000Y-17047619D01*
X11476190Y-16976190D01*
X11476190Y-16928571D01*
X11500000Y-16857142D01*
X11523809Y-16833333D01*
X11476190Y-16380952D02*
X11476190Y-16619047D01*
X11714285Y-16642857D01*
X11690476Y-16619047D01*
X11666666Y-16571428D01*
X11666666Y-16452380D01*
X11690476Y-16404761D01*
X11714285Y-16380952D01*
X11761904Y-16357142D01*
X11880952Y-16357142D01*
X11928571Y-16380952D01*
X11952380Y-16404761D01*
X11976190Y-16452380D01*
X11976190Y-16571428D01*
X11952380Y-16619047D01*
X11928571Y-16642857D01*
X11976190Y-20047619D02*
X11738095Y-20214285D01*
X11976190Y-20333333D02*
X11476190Y-20333333D01*
X11476190Y-20142857D01*
X11500000Y-20095238D01*
X11523809Y-20071428D01*
X11571428Y-20047619D01*
X11642857Y-20047619D01*
X11690476Y-20071428D01*
X11714285Y-20095238D01*
X11738095Y-20142857D01*
X11738095Y-20333333D01*
X11833333Y-19857142D02*
X11833333Y-19619047D01*
X11976190Y-19904761D02*
X11476190Y-19738095D01*
X11976190Y-19571428D01*
X11642857Y-19190476D02*
X11976190Y-19190476D01*
X11452380Y-19309523D02*
X11809523Y-19428571D01*
X11809523Y-19119047D01*
X11976190Y-22547619D02*
X11738095Y-22714285D01*
X11976190Y-22833333D02*
X11476190Y-22833333D01*
X11476190Y-22642857D01*
X11500000Y-22595238D01*
X11523809Y-22571428D01*
X11571428Y-22547619D01*
X11642857Y-22547619D01*
X11690476Y-22571428D01*
X11714285Y-22595238D01*
X11738095Y-22642857D01*
X11738095Y-22833333D01*
X11833333Y-22357142D02*
X11833333Y-22119047D01*
X11976190Y-22404761D02*
X11476190Y-22238095D01*
X11976190Y-22071428D01*
X11476190Y-21666666D02*
X11476190Y-21904761D01*
X11714285Y-21928571D01*
X11690476Y-21904761D01*
X11666666Y-21857142D01*
X11666666Y-21738095D01*
X11690476Y-21690476D01*
X11714285Y-21666666D01*
X11761904Y-21642857D01*
X11880952Y-21642857D01*
X11928571Y-21666666D01*
X11952380Y-21690476D01*
X11976190Y-21738095D01*
X11976190Y-21857142D01*
X11952380Y-21904761D01*
X11928571Y-21928571D01*
X11500000Y-25130952D02*
X11476190Y-25178571D01*
X11476190Y-25250000D01*
X11500000Y-25321428D01*
X11547619Y-25369047D01*
X11595238Y-25392857D01*
X11690476Y-25416666D01*
X11761904Y-25416666D01*
X11857142Y-25392857D01*
X11904761Y-25369047D01*
X11952380Y-25321428D01*
X11976190Y-25250000D01*
X11976190Y-25202380D01*
X11952380Y-25130952D01*
X11928571Y-25107142D01*
X11761904Y-25107142D01*
X11761904Y-25202380D01*
X11976190Y-24892857D02*
X11476190Y-24892857D01*
X11976190Y-24607142D01*
X11476190Y-24607142D01*
X11976190Y-24369047D02*
X11476190Y-24369047D01*
X11476190Y-24250000D01*
X11500000Y-24178571D01*
X11547619Y-24130952D01*
X11595238Y-24107142D01*
X11690476Y-24083333D01*
X11761904Y-24083333D01*
X11857142Y-24107142D01*
X11904761Y-24130952D01*
X11952380Y-24178571D01*
X11976190Y-24250000D01*
X11976190Y-24369047D01*
D12*
G36*
X500000Y-26000000D02*
X500000Y-25000000D01*
X1500000Y-26000000D01*
X500000Y-26000000D01*
G37*
X500000Y-26000000D02*
X500000Y-25000000D01*
X1500000Y-26000000D01*
X500000Y-26000000D01*
D13*
G04 #@! TO.C,C1*
X7900000Y-11850000D02*
X7900000Y-11150000D01*
X9100000Y-11150000D02*
X9100000Y-11850000D01*
G04 #@! TO.C,C2*
X3900000Y-14100000D02*
X3900000Y-13400000D01*
X5100000Y-13400000D02*
X5100000Y-14100000D01*
G04 #@! TO.C,C3*
X3900000Y-17350000D02*
X3900000Y-16650000D01*
X5100000Y-16650000D02*
X5100000Y-17350000D01*
G04 #@! TO.C,J1*
X2830000Y-25080000D02*
X1500000Y-25080000D01*
X2830000Y-23750000D02*
X2830000Y-25080000D01*
X2830000Y-22480000D02*
X170000Y-22480000D01*
X170000Y-22480000D02*
X170000Y-12260000D01*
X2830000Y-22480000D02*
X2830000Y-12260000D01*
X2830000Y-12260000D02*
X170000Y-12260000D01*
G04 #@! TO.C,J2*
X9825000Y-8675000D02*
X9825000Y525000D01*
X2125000Y-8675000D02*
X9825000Y-8675000D01*
X2125000Y525000D02*
X2125000Y-8675000D01*
X9825000Y525000D02*
X2125000Y525000D01*
X9825000Y-475000D02*
X2125000Y-475000D01*
D12*
G04 #@! TO.C,U1*
X7103000Y-18893000D02*
G75*
G03X7103000Y-18893000I-381000J0D01*
G01*
X6087000Y-19528000D02*
X6087000Y-15972000D01*
X10913000Y-19528000D02*
X6087000Y-19528000D01*
X10913000Y-15972000D02*
X10913000Y-19528000D01*
X6087000Y-15972000D02*
X10913000Y-15972000D01*
G04 #@! TO.C,C1*
D10*
X7678571Y-11583333D02*
X7702380Y-11607142D01*
X7726190Y-11678571D01*
X7726190Y-11726190D01*
X7702380Y-11797619D01*
X7654761Y-11845238D01*
X7607142Y-11869047D01*
X7511904Y-11892857D01*
X7440476Y-11892857D01*
X7345238Y-11869047D01*
X7297619Y-11845238D01*
X7250000Y-11797619D01*
X7226190Y-11726190D01*
X7226190Y-11678571D01*
X7250000Y-11607142D01*
X7273809Y-11583333D01*
X7726190Y-11107142D02*
X7726190Y-11392857D01*
X7726190Y-11250000D02*
X7226190Y-11250000D01*
X7297619Y-11297619D01*
X7345238Y-11345238D01*
X7369047Y-11392857D01*
G04 #@! TO.C,C2*
X3678571Y-13833333D02*
X3702380Y-13857142D01*
X3726190Y-13928571D01*
X3726190Y-13976190D01*
X3702380Y-14047619D01*
X3654761Y-14095238D01*
X3607142Y-14119047D01*
X3511904Y-14142857D01*
X3440476Y-14142857D01*
X3345238Y-14119047D01*
X3297619Y-14095238D01*
X3250000Y-14047619D01*
X3226190Y-13976190D01*
X3226190Y-13928571D01*
X3250000Y-13857142D01*
X3273809Y-13833333D01*
X3273809Y-13642857D02*
X3250000Y-13619047D01*
X3226190Y-13571428D01*
X3226190Y-13452380D01*
X3250000Y-13404761D01*
X3273809Y-13380952D01*
X3321428Y-13357142D01*
X3369047Y-13357142D01*
X3440476Y-13380952D01*
X3726190Y-13666666D01*
X3726190Y-13357142D01*
G04 #@! TO.C,C3*
X3678571Y-17083333D02*
X3702380Y-17107142D01*
X3726190Y-17178571D01*
X3726190Y-17226190D01*
X3702380Y-17297619D01*
X3654761Y-17345238D01*
X3607142Y-17369047D01*
X3511904Y-17392857D01*
X3440476Y-17392857D01*
X3345238Y-17369047D01*
X3297619Y-17345238D01*
X3250000Y-17297619D01*
X3226190Y-17226190D01*
X3226190Y-17178571D01*
X3250000Y-17107142D01*
X3273809Y-17083333D01*
X3226190Y-16916666D02*
X3226190Y-16607142D01*
X3416666Y-16773809D01*
X3416666Y-16702380D01*
X3440476Y-16654761D01*
X3464285Y-16630952D01*
X3511904Y-16607142D01*
X3630952Y-16607142D01*
X3678571Y-16630952D01*
X3702380Y-16654761D01*
X3726190Y-16702380D01*
X3726190Y-16845238D01*
X3702380Y-16892857D01*
X3678571Y-16916666D01*
G04 #@! TO.C,J1*
X2226190Y-25916666D02*
X2583333Y-25916666D01*
X2654761Y-25940476D01*
X2702380Y-25988095D01*
X2726190Y-26059523D01*
X2726190Y-26107142D01*
X2726190Y-25416666D02*
X2726190Y-25702380D01*
X2726190Y-25559523D02*
X2226190Y-25559523D01*
X2297619Y-25607142D01*
X2345238Y-25654761D01*
X2369047Y-25702380D01*
G04 #@! TO.C,J2*
X976190Y-4166666D02*
X1333333Y-4166666D01*
X1404761Y-4190476D01*
X1452380Y-4238095D01*
X1476190Y-4309523D01*
X1476190Y-4357142D01*
X1023809Y-3952380D02*
X1000000Y-3928571D01*
X976190Y-3880952D01*
X976190Y-3761904D01*
X1000000Y-3714285D01*
X1023809Y-3690476D01*
X1071428Y-3666666D01*
X1119047Y-3666666D01*
X1190476Y-3690476D01*
X1476190Y-3976190D01*
X1476190Y-3666666D01*
G04 #@! TO.C,U1*
X5226190Y-21130952D02*
X5630952Y-21130952D01*
X5678571Y-21107142D01*
X5702380Y-21083333D01*
X5726190Y-21035714D01*
X5726190Y-20940476D01*
X5702380Y-20892857D01*
X5678571Y-20869047D01*
X5630952Y-20845238D01*
X5226190Y-20845238D01*
X5726190Y-20345238D02*
X5726190Y-20630952D01*
X5726190Y-20488095D02*
X5226190Y-20488095D01*
X5297619Y-20535714D01*
X5345238Y-20583333D01*
X5369047Y-20630952D01*
G04 #@! TD*
M02*
