G04 #@! TF.GenerationSoftware,KiCad,Pcbnew,(5.0.0)*
G04 #@! TF.CreationDate,2018-09-18T20:25:08+02:00*
G04 #@! TF.ProjectId,pcb_relay_main,7063625F72656C61795F6D61696E2E6B,rev?*
G04 #@! TF.SameCoordinates,PXeb14aa0PY7f13bd0*
G04 #@! TF.FileFunction,Copper,L1,Top,Signal*
G04 #@! TF.FilePolarity,Positive*
%FSLAX46Y46*%
G04 Gerber Fmt 4.6, Leading zero omitted, Abs format (unit mm)*
G04 Created by KiCad (PCBNEW (5.0.0)) date 09/18/18 20:25:08*
%MOMM*%
%LPD*%
G01*
G04 APERTURE LIST*
G04 #@! TA.AperFunction,ComponentPad*
%ADD10O,1.700000X1.700000*%
G04 #@! TD*
G04 #@! TA.AperFunction,ComponentPad*
%ADD11R,1.700000X1.700000*%
G04 #@! TD*
G04 #@! TA.AperFunction,SMDPad,CuDef*
%ADD12R,0.750000X0.800000*%
G04 #@! TD*
G04 #@! TA.AperFunction,SMDPad,CuDef*
%ADD13R,2.000000X2.500000*%
G04 #@! TD*
G04 #@! TA.AperFunction,SMDPad,CuDef*
%ADD14R,0.500000X2.300000*%
G04 #@! TD*
G04 #@! TA.AperFunction,SMDPad,CuDef*
%ADD15R,0.431800X1.397000*%
G04 #@! TD*
G04 #@! TA.AperFunction,ViaPad*
%ADD16C,0.800000*%
G04 #@! TD*
G04 #@! TA.AperFunction,Conductor*
%ADD17C,0.250000*%
G04 #@! TD*
G04 #@! TA.AperFunction,Conductor*
%ADD18C,0.254000*%
G04 #@! TD*
G04 APERTURE END LIST*
D10*
G04 #@! TO.P,J3,10*
G04 #@! TO.N,GND*
X13500000Y-24610000D03*
G04 #@! TO.P,J3,9*
G04 #@! TO.N,RA5*
X13500000Y-22070000D03*
G04 #@! TO.P,J3,8*
G04 #@! TO.N,RA4*
X13500000Y-19530000D03*
G04 #@! TO.P,J3,7*
G04 #@! TO.N,Net-(J3-Pad7)*
X13500000Y-16990000D03*
G04 #@! TO.P,J3,6*
G04 #@! TO.N,Net-(J3-Pad6)*
X13500000Y-14450000D03*
G04 #@! TO.P,J3,5*
G04 #@! TO.N,Net-(J3-Pad5)*
X13500000Y-11910000D03*
G04 #@! TO.P,J3,4*
G04 #@! TO.N,Net-(J3-Pad4)*
X13500000Y-9370000D03*
G04 #@! TO.P,J3,3*
G04 #@! TO.N,ICSPCLK*
X13500000Y-6830000D03*
G04 #@! TO.P,J3,2*
G04 #@! TO.N,ICSPDAT*
X13500000Y-4290000D03*
D11*
G04 #@! TO.P,J3,1*
G04 #@! TO.N,+5V*
X13500000Y-1750000D03*
G04 #@! TD*
D12*
G04 #@! TO.P,C1,1*
G04 #@! TO.N,Net-(C1-Pad1)*
X8500000Y-12250000D03*
G04 #@! TO.P,C1,2*
G04 #@! TO.N,GND*
X8500000Y-10750000D03*
G04 #@! TD*
G04 #@! TO.P,C2,2*
G04 #@! TO.N,GND*
X4500000Y-14500000D03*
G04 #@! TO.P,C2,1*
G04 #@! TO.N,+5V*
X4500000Y-13000000D03*
G04 #@! TD*
G04 #@! TO.P,C3,1*
G04 #@! TO.N,+5V*
X4500000Y-17750000D03*
G04 #@! TO.P,C3,2*
G04 #@! TO.N,GND*
X4500000Y-16250000D03*
G04 #@! TD*
D10*
G04 #@! TO.P,J1,5*
G04 #@! TO.N,ICSPCLK*
X1500000Y-13590000D03*
G04 #@! TO.P,J1,4*
G04 #@! TO.N,ICSPDAT*
X1500000Y-16130000D03*
G04 #@! TO.P,J1,3*
G04 #@! TO.N,GND*
X1500000Y-18670000D03*
G04 #@! TO.P,J1,2*
G04 #@! TO.N,+5V*
X1500000Y-21210000D03*
D11*
G04 #@! TO.P,J1,1*
G04 #@! TO.N,VPP*
X1500000Y-23750000D03*
G04 #@! TD*
D13*
G04 #@! TO.P,J2,6*
G04 #@! TO.N,N/C*
X1525000Y-1925000D03*
X1525000Y-7425000D03*
X10425000Y-1925000D03*
X10425000Y-7425000D03*
D14*
G04 #@! TO.P,J2,5*
G04 #@! TO.N,GND*
X4375000Y-7525000D03*
G04 #@! TO.P,J2,4*
X5175000Y-7525000D03*
G04 #@! TO.P,J2,3*
G04 #@! TO.N,Net-(J2-Pad3)*
X5975000Y-7525000D03*
G04 #@! TO.P,J2,2*
G04 #@! TO.N,Net-(J2-Pad2)*
X6775000Y-7525000D03*
G04 #@! TO.P,J2,1*
G04 #@! TO.N,+5V*
X7575000Y-7525000D03*
G04 #@! TD*
D15*
G04 #@! TO.P,U1,14*
G04 #@! TO.N,GND*
X6556900Y-14956000D03*
G04 #@! TO.P,U1,13*
G04 #@! TO.N,Net-(J2-Pad3)*
X7204600Y-14956000D03*
G04 #@! TO.P,U1,12*
G04 #@! TO.N,Net-(J2-Pad2)*
X7852300Y-14956000D03*
G04 #@! TO.P,U1,11*
G04 #@! TO.N,Net-(C1-Pad1)*
X8500000Y-14956000D03*
G04 #@! TO.P,U1,10*
G04 #@! TO.N,ICSPDAT*
X9160400Y-14956000D03*
G04 #@! TO.P,U1,9*
G04 #@! TO.N,ICSPCLK*
X9808100Y-14956000D03*
G04 #@! TO.P,U1,8*
G04 #@! TO.N,Net-(J3-Pad4)*
X10455800Y-14956000D03*
G04 #@! TO.P,U1,7*
G04 #@! TO.N,Net-(J3-Pad5)*
X10455800Y-20544000D03*
G04 #@! TO.P,U1,6*
G04 #@! TO.N,Net-(J3-Pad6)*
X9808100Y-20544000D03*
G04 #@! TO.P,U1,5*
G04 #@! TO.N,Net-(J3-Pad7)*
X9160400Y-20544000D03*
G04 #@! TO.P,U1,4*
G04 #@! TO.N,VPP*
X8500000Y-20544000D03*
G04 #@! TO.P,U1,3*
G04 #@! TO.N,RA4*
X7865000Y-20544000D03*
G04 #@! TO.P,U1,2*
G04 #@! TO.N,RA5*
X7204600Y-20544000D03*
G04 #@! TO.P,U1,1*
G04 #@! TO.N,+5V*
X6569600Y-20544000D03*
G04 #@! TD*
D16*
G04 #@! TO.N,GND*
X4500000Y-10750000D03*
X7500000Y-9750000D03*
X6750000Y-17250000D03*
X1500000Y-10750000D03*
X6750000Y-24500000D03*
X6250000Y-3000000D03*
G04 #@! TO.N,ICSPCLK*
X9749996Y-17250000D03*
G04 #@! TO.N,ICSPDAT*
X8000000Y-17250000D03*
G04 #@! TO.N,VPP*
X8500000Y-18500000D03*
G04 #@! TD*
D17*
G04 #@! TO.N,Net-(C1-Pad1)*
X8500000Y-12250000D02*
X8500000Y-14956000D01*
G04 #@! TO.N,GND*
X4500000Y-16250000D02*
X4500000Y-16275000D01*
X4500000Y-16250000D02*
X4500000Y-14500000D01*
X6100900Y-14500000D02*
X6556900Y-14956000D01*
X4500000Y-14500000D02*
X6100900Y-14500000D01*
X4500000Y-10750000D02*
X4500000Y-7650000D01*
X4500000Y-7650000D02*
X4400000Y-7550000D01*
X8500000Y-10750000D02*
X7500000Y-9750000D01*
X6556900Y-15904500D02*
X6750000Y-16097600D01*
X6556900Y-14956000D02*
X6556900Y-15904500D01*
X6750000Y-16097600D02*
X6750000Y-17250000D01*
X4375000Y-7525000D02*
X5175000Y-7525000D01*
X6556900Y-14007500D02*
X6556900Y-14956000D01*
X6556900Y-13372585D02*
X6556900Y-14007500D01*
X4500000Y-10750000D02*
X4500000Y-11315685D01*
X4500000Y-11315685D02*
X6556900Y-13372585D01*
G04 #@! TO.N,+5V*
X4500000Y-18400000D02*
X4500000Y-17750000D01*
X4500000Y-18940300D02*
X4500000Y-18400000D01*
X6569600Y-20544000D02*
X6103700Y-20544000D01*
X6103700Y-20544000D02*
X4500000Y-18940300D01*
X2349999Y-20360001D02*
X1500000Y-21210000D01*
X4500000Y-17750000D02*
X4500000Y-18210000D01*
X4500000Y-18210000D02*
X2349999Y-20360001D01*
X4500000Y-12975000D02*
X3000000Y-11475000D01*
X4500000Y-13000000D02*
X4500000Y-12975000D01*
X3000000Y-16225000D02*
X3000000Y-11475000D01*
X4500000Y-17750000D02*
X4500000Y-17725000D01*
X4500000Y-17725000D02*
X3000000Y-16225000D01*
X10750000Y-4500000D02*
X13500000Y-1750000D01*
X9750000Y-4500000D02*
X10750000Y-4500000D01*
X3000000Y-6464998D02*
X3714998Y-5750000D01*
X3000000Y-11475000D02*
X3000000Y-6464998D01*
X3714998Y-5750000D02*
X6975000Y-5750000D01*
X6975000Y-5750000D02*
X7125000Y-5900000D01*
X8350000Y-5900000D02*
X9750000Y-4500000D01*
X7425000Y-5975000D02*
X7425000Y-5900000D01*
X7575000Y-6125000D02*
X7425000Y-5975000D01*
X7575000Y-7525000D02*
X7575000Y-6125000D01*
X7125000Y-5900000D02*
X7425000Y-5900000D01*
X7425000Y-5900000D02*
X8350000Y-5900000D01*
G04 #@! TO.N,ICSPCLK*
X9808100Y-14956000D02*
X9808100Y-17191896D01*
X9808100Y-17191896D02*
X9749996Y-17250000D01*
X9808100Y-14956000D02*
X9808100Y-13250000D01*
X9808100Y-13250000D02*
X9808100Y-13061900D01*
X12324999Y-8861411D02*
X13500000Y-7686410D01*
X13500000Y-7686410D02*
X13500000Y-6830000D01*
X12324999Y-9611412D02*
X12324999Y-8861411D01*
X9808100Y-12128310D02*
X12324999Y-9611412D01*
X9808100Y-13250000D02*
X9808100Y-12128310D01*
G04 #@! TO.N,ICSPDAT*
X9160400Y-14956000D02*
X9160400Y-16089600D01*
X9160400Y-16089600D02*
X8399999Y-16850001D01*
X8399999Y-16850001D02*
X8000000Y-17250000D01*
X12324999Y-5465001D02*
X12650001Y-5139999D01*
X11874989Y-9425012D02*
X11874990Y-8619598D01*
X12650001Y-5139999D02*
X13500000Y-4290000D01*
X9358091Y-11941909D02*
X11874989Y-9425012D01*
X11874990Y-8619598D02*
X12324999Y-8169589D01*
X9160400Y-14007500D02*
X9358089Y-13809811D01*
X12324999Y-8169589D02*
X12324999Y-5465001D01*
X9358089Y-13809811D02*
X9358091Y-11941909D01*
X9160400Y-14956000D02*
X9160400Y-14007500D01*
G04 #@! TO.N,VPP*
X8500000Y-20544000D02*
X8500000Y-18500000D01*
G04 #@! TO.N,Net-(J2-Pad3)*
X7204600Y-14007500D02*
X7204600Y-14956000D01*
X5975000Y-12154274D02*
X7204600Y-13383874D01*
X7204600Y-13383874D02*
X7204600Y-14007500D01*
X5975000Y-7525000D02*
X5975000Y-12154274D01*
G04 #@! TO.N,Net-(J2-Pad2)*
X7852300Y-13395164D02*
X7852300Y-14007500D01*
X7852300Y-14007500D02*
X7852300Y-14956000D01*
X6775000Y-12317864D02*
X7852300Y-13395164D01*
X6775000Y-7525000D02*
X6775000Y-12317864D01*
G04 #@! TO.N,RA5*
X12320000Y-23250000D02*
X12650001Y-22919999D01*
X12650001Y-22919999D02*
X13500000Y-22070000D01*
X7204600Y-21491090D02*
X8963510Y-23250000D01*
X7204600Y-20544000D02*
X7204600Y-21491090D01*
X8963510Y-23250000D02*
X12320000Y-23250000D01*
G04 #@! TO.N,RA4*
X13500000Y-20386411D02*
X13500000Y-19530000D01*
X11236389Y-22650022D02*
X12650001Y-21236410D01*
X12650001Y-21236410D02*
X12650001Y-20379999D01*
X9022522Y-22650022D02*
X11236389Y-22650022D01*
X12650001Y-20379999D02*
X13500000Y-19530000D01*
X7865000Y-21492500D02*
X9022522Y-22650022D01*
X7865000Y-20544000D02*
X7865000Y-21492500D01*
G04 #@! TO.N,Net-(J3-Pad6)*
X11700011Y-20799191D02*
X11700011Y-18987700D01*
X11700011Y-18987700D02*
X11950011Y-18737700D01*
X12650001Y-15299999D02*
X13500000Y-14450000D01*
X11950011Y-15999989D02*
X12650001Y-15299999D01*
X10065600Y-21750000D02*
X10749202Y-21750000D01*
X11950011Y-18737700D02*
X11950011Y-15999989D01*
X9808100Y-20544000D02*
X9808100Y-21492500D01*
X10749202Y-21750000D02*
X11700011Y-20799191D01*
X9808100Y-21492500D02*
X10065600Y-21750000D01*
G04 #@! TO.N,Net-(J3-Pad5)*
X13019200Y-11910000D02*
X13500000Y-11910000D01*
X10455800Y-20544000D02*
X10455800Y-19595500D01*
X10455800Y-19595500D02*
X11500000Y-18551300D01*
X11500000Y-13910000D02*
X13500000Y-11910000D01*
X11500000Y-18551300D02*
X11500000Y-13910000D01*
G04 #@! TO.N,Net-(J3-Pad7)*
X9160400Y-20544000D02*
X9160400Y-21492500D01*
X9160400Y-21492500D02*
X9867911Y-22200011D01*
X10935602Y-22200011D02*
X12150022Y-20985591D01*
X12150022Y-19174100D02*
X12650001Y-18674121D01*
X12650001Y-17839999D02*
X13500000Y-16990000D01*
X12650001Y-18674121D02*
X12650001Y-17839999D01*
X12150022Y-20985591D02*
X12150022Y-19174100D01*
X9867911Y-22200011D02*
X10935602Y-22200011D01*
G04 #@! TO.N,Net-(J3-Pad4)*
X10455800Y-14956000D02*
X10455800Y-14473400D01*
X10455800Y-12414200D02*
X13500000Y-9370000D01*
X10455800Y-14956000D02*
X10455800Y-12414200D01*
G04 #@! TD*
D18*
G04 #@! TO.N,GND*
G36*
X5513373Y-21028476D02*
X5555771Y-21091929D01*
X5619224Y-21134327D01*
X5619226Y-21134329D01*
X5706260Y-21192483D01*
X5706260Y-21242500D01*
X5755543Y-21490265D01*
X5895891Y-21700309D01*
X6105935Y-21840657D01*
X6353700Y-21889940D01*
X6557060Y-21889940D01*
X6566104Y-21903474D01*
X6656672Y-22039019D01*
X6720128Y-22081419D01*
X8373183Y-23734476D01*
X8415581Y-23797929D01*
X8479034Y-23840327D01*
X8479036Y-23840329D01*
X8604412Y-23924102D01*
X8666973Y-23965904D01*
X8888658Y-24010000D01*
X8888662Y-24010000D01*
X8963509Y-24024888D01*
X9038356Y-24010000D01*
X12159217Y-24010000D01*
X12058524Y-24253110D01*
X12179845Y-24483000D01*
X13373000Y-24483000D01*
X13373000Y-24463000D01*
X13627000Y-24463000D01*
X13627000Y-24483000D01*
X13647000Y-24483000D01*
X13647000Y-24737000D01*
X13627000Y-24737000D01*
X13627000Y-24757000D01*
X13373000Y-24757000D01*
X13373000Y-24737000D01*
X12179845Y-24737000D01*
X12058524Y-24966890D01*
X12228355Y-25376924D01*
X12618642Y-25805183D01*
X13065416Y-26015000D01*
X735000Y-26015000D01*
X735000Y-25247440D01*
X2350000Y-25247440D01*
X2597765Y-25198157D01*
X2807809Y-25057809D01*
X2948157Y-24847765D01*
X2997440Y-24600000D01*
X2997440Y-22900000D01*
X2948157Y-22652235D01*
X2807809Y-22442191D01*
X2597765Y-22301843D01*
X2552381Y-22292816D01*
X2570625Y-22280625D01*
X2898839Y-21789418D01*
X3014092Y-21210000D01*
X2941209Y-20843592D01*
X4134850Y-19649951D01*
X5513373Y-21028476D01*
X5513373Y-21028476D01*
G37*
X5513373Y-21028476D02*
X5555771Y-21091929D01*
X5619224Y-21134327D01*
X5619226Y-21134329D01*
X5706260Y-21192483D01*
X5706260Y-21242500D01*
X5755543Y-21490265D01*
X5895891Y-21700309D01*
X6105935Y-21840657D01*
X6353700Y-21889940D01*
X6557060Y-21889940D01*
X6566104Y-21903474D01*
X6656672Y-22039019D01*
X6720128Y-22081419D01*
X8373183Y-23734476D01*
X8415581Y-23797929D01*
X8479034Y-23840327D01*
X8479036Y-23840329D01*
X8604412Y-23924102D01*
X8666973Y-23965904D01*
X8888658Y-24010000D01*
X8888662Y-24010000D01*
X8963509Y-24024888D01*
X9038356Y-24010000D01*
X12159217Y-24010000D01*
X12058524Y-24253110D01*
X12179845Y-24483000D01*
X13373000Y-24483000D01*
X13373000Y-24463000D01*
X13627000Y-24463000D01*
X13627000Y-24483000D01*
X13647000Y-24483000D01*
X13647000Y-24737000D01*
X13627000Y-24737000D01*
X13627000Y-24757000D01*
X13373000Y-24757000D01*
X13373000Y-24737000D01*
X12179845Y-24737000D01*
X12058524Y-24966890D01*
X12228355Y-25376924D01*
X12618642Y-25805183D01*
X13065416Y-26015000D01*
X735000Y-26015000D01*
X735000Y-25247440D01*
X2350000Y-25247440D01*
X2597765Y-25198157D01*
X2807809Y-25057809D01*
X2948157Y-24847765D01*
X2997440Y-24600000D01*
X2997440Y-22900000D01*
X2948157Y-22652235D01*
X2807809Y-22442191D01*
X2597765Y-22301843D01*
X2552381Y-22292816D01*
X2570625Y-22280625D01*
X2898839Y-21789418D01*
X3014092Y-21210000D01*
X2941209Y-20843592D01*
X4134850Y-19649951D01*
X5513373Y-21028476D01*
G36*
X6429898Y-13683974D02*
X6429898Y-13762198D01*
X6290200Y-13622500D01*
X6214691Y-13622500D01*
X5981302Y-13719173D01*
X5802673Y-13897801D01*
X5706000Y-14131190D01*
X5706000Y-14670250D01*
X5864750Y-14829000D01*
X6341260Y-14829000D01*
X6341260Y-15083000D01*
X5864750Y-15083000D01*
X5706000Y-15241750D01*
X5706000Y-15780810D01*
X5802673Y-16014199D01*
X5981302Y-16192827D01*
X6214691Y-16289500D01*
X6290200Y-16289500D01*
X6448950Y-16130750D01*
X6448950Y-15989677D01*
X6530891Y-16112309D01*
X6740935Y-16252657D01*
X6798135Y-16264035D01*
X6823600Y-16289500D01*
X6899109Y-16289500D01*
X6907885Y-16285865D01*
X6988700Y-16301940D01*
X7420500Y-16301940D01*
X7528450Y-16280468D01*
X7601158Y-16294930D01*
X7413720Y-16372569D01*
X7122569Y-16663720D01*
X6965000Y-17044126D01*
X6965000Y-17455874D01*
X7122569Y-17836280D01*
X7413720Y-18127431D01*
X7516426Y-18169973D01*
X7465000Y-18294126D01*
X7465000Y-18705874D01*
X7622569Y-19086280D01*
X7734349Y-19198060D01*
X7649100Y-19198060D01*
X7534800Y-19220795D01*
X7420500Y-19198060D01*
X6988700Y-19198060D01*
X6887100Y-19218269D01*
X6785500Y-19198060D01*
X6353700Y-19198060D01*
X6105935Y-19247343D01*
X5971603Y-19337101D01*
X5278559Y-18644058D01*
X5332809Y-18607809D01*
X5473157Y-18397765D01*
X5522440Y-18150000D01*
X5522440Y-17350000D01*
X5473157Y-17102235D01*
X5412127Y-17010898D01*
X5413327Y-17009698D01*
X5510000Y-16776309D01*
X5510000Y-16535750D01*
X5351250Y-16377000D01*
X4627000Y-16377000D01*
X4627000Y-16397000D01*
X4373000Y-16397000D01*
X4373000Y-16377000D01*
X4353000Y-16377000D01*
X4353000Y-16123000D01*
X4373000Y-16123000D01*
X4373000Y-14627000D01*
X4627000Y-14627000D01*
X4627000Y-16123000D01*
X5351250Y-16123000D01*
X5510000Y-15964250D01*
X5510000Y-15723691D01*
X5413327Y-15490302D01*
X5298026Y-15375000D01*
X5413327Y-15259698D01*
X5510000Y-15026309D01*
X5510000Y-14785750D01*
X5351250Y-14627000D01*
X4627000Y-14627000D01*
X4373000Y-14627000D01*
X4353000Y-14627000D01*
X4353000Y-14373000D01*
X4373000Y-14373000D01*
X4373000Y-14353000D01*
X4627000Y-14353000D01*
X4627000Y-14373000D01*
X5351250Y-14373000D01*
X5510000Y-14214250D01*
X5510000Y-13973691D01*
X5413327Y-13740302D01*
X5412127Y-13739102D01*
X5473157Y-13647765D01*
X5522440Y-13400000D01*
X5522440Y-12776515D01*
X6429898Y-13683974D01*
X6429898Y-13683974D01*
G37*
X6429898Y-13683974D02*
X6429898Y-13762198D01*
X6290200Y-13622500D01*
X6214691Y-13622500D01*
X5981302Y-13719173D01*
X5802673Y-13897801D01*
X5706000Y-14131190D01*
X5706000Y-14670250D01*
X5864750Y-14829000D01*
X6341260Y-14829000D01*
X6341260Y-15083000D01*
X5864750Y-15083000D01*
X5706000Y-15241750D01*
X5706000Y-15780810D01*
X5802673Y-16014199D01*
X5981302Y-16192827D01*
X6214691Y-16289500D01*
X6290200Y-16289500D01*
X6448950Y-16130750D01*
X6448950Y-15989677D01*
X6530891Y-16112309D01*
X6740935Y-16252657D01*
X6798135Y-16264035D01*
X6823600Y-16289500D01*
X6899109Y-16289500D01*
X6907885Y-16285865D01*
X6988700Y-16301940D01*
X7420500Y-16301940D01*
X7528450Y-16280468D01*
X7601158Y-16294930D01*
X7413720Y-16372569D01*
X7122569Y-16663720D01*
X6965000Y-17044126D01*
X6965000Y-17455874D01*
X7122569Y-17836280D01*
X7413720Y-18127431D01*
X7516426Y-18169973D01*
X7465000Y-18294126D01*
X7465000Y-18705874D01*
X7622569Y-19086280D01*
X7734349Y-19198060D01*
X7649100Y-19198060D01*
X7534800Y-19220795D01*
X7420500Y-19198060D01*
X6988700Y-19198060D01*
X6887100Y-19218269D01*
X6785500Y-19198060D01*
X6353700Y-19198060D01*
X6105935Y-19247343D01*
X5971603Y-19337101D01*
X5278559Y-18644058D01*
X5332809Y-18607809D01*
X5473157Y-18397765D01*
X5522440Y-18150000D01*
X5522440Y-17350000D01*
X5473157Y-17102235D01*
X5412127Y-17010898D01*
X5413327Y-17009698D01*
X5510000Y-16776309D01*
X5510000Y-16535750D01*
X5351250Y-16377000D01*
X4627000Y-16377000D01*
X4627000Y-16397000D01*
X4373000Y-16397000D01*
X4373000Y-16377000D01*
X4353000Y-16377000D01*
X4353000Y-16123000D01*
X4373000Y-16123000D01*
X4373000Y-14627000D01*
X4627000Y-14627000D01*
X4627000Y-16123000D01*
X5351250Y-16123000D01*
X5510000Y-15964250D01*
X5510000Y-15723691D01*
X5413327Y-15490302D01*
X5298026Y-15375000D01*
X5413327Y-15259698D01*
X5510000Y-15026309D01*
X5510000Y-14785750D01*
X5351250Y-14627000D01*
X4627000Y-14627000D01*
X4373000Y-14627000D01*
X4353000Y-14627000D01*
X4353000Y-14373000D01*
X4373000Y-14373000D01*
X4373000Y-14353000D01*
X4627000Y-14353000D01*
X4627000Y-14373000D01*
X5351250Y-14373000D01*
X5510000Y-14214250D01*
X5510000Y-13973691D01*
X5413327Y-13740302D01*
X5412127Y-13739102D01*
X5473157Y-13647765D01*
X5522440Y-13400000D01*
X5522440Y-12776515D01*
X6429898Y-13683974D01*
G36*
X1627000Y-18543000D02*
X1647000Y-18543000D01*
X1647000Y-18797000D01*
X1627000Y-18797000D01*
X1627000Y-18817000D01*
X1373000Y-18817000D01*
X1373000Y-18797000D01*
X1353000Y-18797000D01*
X1353000Y-18543000D01*
X1373000Y-18543000D01*
X1373000Y-18523000D01*
X1627000Y-18523000D01*
X1627000Y-18543000D01*
X1627000Y-18543000D01*
G37*
X1627000Y-18543000D02*
X1647000Y-18543000D01*
X1647000Y-18797000D01*
X1627000Y-18797000D01*
X1627000Y-18817000D01*
X1373000Y-18817000D01*
X1373000Y-18797000D01*
X1353000Y-18797000D01*
X1353000Y-18543000D01*
X1373000Y-18543000D01*
X1373000Y-18523000D01*
X1627000Y-18523000D01*
X1627000Y-18543000D01*
G36*
X2240000Y-11400153D02*
X2225112Y-11475000D01*
X2240000Y-11549847D01*
X2240000Y-11549851D01*
X2240001Y-11549856D01*
X2240001Y-12298459D01*
X2079418Y-12191161D01*
X1646256Y-12105000D01*
X1353744Y-12105000D01*
X920582Y-12191161D01*
X735000Y-12315163D01*
X735000Y-9322440D01*
X2240000Y-9322440D01*
X2240000Y-11400153D01*
X2240000Y-11400153D01*
G37*
X2240000Y-11400153D02*
X2225112Y-11475000D01*
X2240000Y-11549847D01*
X2240000Y-11549851D01*
X2240001Y-11549856D01*
X2240001Y-12298459D01*
X2079418Y-12191161D01*
X1646256Y-12105000D01*
X1353744Y-12105000D01*
X920582Y-12191161D01*
X735000Y-12315163D01*
X735000Y-9322440D01*
X2240000Y-9322440D01*
X2240000Y-11400153D01*
G36*
X4448750Y-7398000D02*
X4522000Y-7398000D01*
X4522000Y-7652000D01*
X4448750Y-7652000D01*
X4290000Y-7810750D01*
X4290000Y-8801309D01*
X4386673Y-9034698D01*
X4500000Y-9148026D01*
X4500000Y-9151250D01*
X4658750Y-9310000D01*
X4751310Y-9310000D01*
X4775000Y-9300187D01*
X4798690Y-9310000D01*
X4891250Y-9310000D01*
X5050000Y-9151250D01*
X5050000Y-9148026D01*
X5163327Y-9034698D01*
X5177987Y-8999306D01*
X5215000Y-9054701D01*
X5215001Y-12063474D01*
X5122765Y-12001843D01*
X4875000Y-11952560D01*
X4552362Y-11952560D01*
X3760000Y-11160199D01*
X3760000Y-9208026D01*
X3765301Y-9213327D01*
X3998690Y-9310000D01*
X4091250Y-9310000D01*
X4250000Y-9151250D01*
X4250000Y-7652000D01*
X4228000Y-7652000D01*
X4228000Y-7398000D01*
X4250000Y-7398000D01*
X4250000Y-7378000D01*
X4428750Y-7378000D01*
X4448750Y-7398000D01*
X4448750Y-7398000D01*
G37*
X4448750Y-7398000D02*
X4522000Y-7398000D01*
X4522000Y-7652000D01*
X4448750Y-7652000D01*
X4290000Y-7810750D01*
X4290000Y-8801309D01*
X4386673Y-9034698D01*
X4500000Y-9148026D01*
X4500000Y-9151250D01*
X4658750Y-9310000D01*
X4751310Y-9310000D01*
X4775000Y-9300187D01*
X4798690Y-9310000D01*
X4891250Y-9310000D01*
X5050000Y-9151250D01*
X5050000Y-9148026D01*
X5163327Y-9034698D01*
X5177987Y-8999306D01*
X5215000Y-9054701D01*
X5215001Y-12063474D01*
X5122765Y-12001843D01*
X4875000Y-11952560D01*
X4552362Y-11952560D01*
X3760000Y-11160199D01*
X3760000Y-9208026D01*
X3765301Y-9213327D01*
X3998690Y-9310000D01*
X4091250Y-9310000D01*
X4250000Y-9151250D01*
X4250000Y-7652000D01*
X4228000Y-7652000D01*
X4228000Y-7398000D01*
X4250000Y-7398000D01*
X4250000Y-7378000D01*
X4428750Y-7378000D01*
X4448750Y-7398000D01*
G36*
X8777560Y-8675000D02*
X8826843Y-8922765D01*
X8967191Y-9132809D01*
X9177235Y-9273157D01*
X9425000Y-9322440D01*
X10902759Y-9322440D01*
X9510000Y-10715199D01*
X9510000Y-10622998D01*
X9351252Y-10622998D01*
X9510000Y-10464250D01*
X9510000Y-10223691D01*
X9413327Y-9990302D01*
X9234699Y-9811673D01*
X9001310Y-9715000D01*
X8785750Y-9715000D01*
X8627000Y-9873750D01*
X8627000Y-10623000D01*
X8647000Y-10623000D01*
X8647000Y-10877000D01*
X8627000Y-10877000D01*
X8627000Y-10897000D01*
X8373000Y-10897000D01*
X8373000Y-10877000D01*
X8353000Y-10877000D01*
X8353000Y-10623000D01*
X8373000Y-10623000D01*
X8373000Y-9873750D01*
X8214250Y-9715000D01*
X7998690Y-9715000D01*
X7765301Y-9811673D01*
X7586673Y-9990302D01*
X7535000Y-10115052D01*
X7535000Y-9322440D01*
X7825000Y-9322440D01*
X8072765Y-9273157D01*
X8282809Y-9132809D01*
X8423157Y-8922765D01*
X8472440Y-8675000D01*
X8472440Y-6650534D01*
X8646537Y-6615904D01*
X8777560Y-6528357D01*
X8777560Y-8675000D01*
X8777560Y-8675000D01*
G37*
X8777560Y-8675000D02*
X8826843Y-8922765D01*
X8967191Y-9132809D01*
X9177235Y-9273157D01*
X9425000Y-9322440D01*
X10902759Y-9322440D01*
X9510000Y-10715199D01*
X9510000Y-10622998D01*
X9351252Y-10622998D01*
X9510000Y-10464250D01*
X9510000Y-10223691D01*
X9413327Y-9990302D01*
X9234699Y-9811673D01*
X9001310Y-9715000D01*
X8785750Y-9715000D01*
X8627000Y-9873750D01*
X8627000Y-10623000D01*
X8647000Y-10623000D01*
X8647000Y-10877000D01*
X8627000Y-10877000D01*
X8627000Y-10897000D01*
X8373000Y-10897000D01*
X8373000Y-10877000D01*
X8353000Y-10877000D01*
X8353000Y-10623000D01*
X8373000Y-10623000D01*
X8373000Y-9873750D01*
X8214250Y-9715000D01*
X7998690Y-9715000D01*
X7765301Y-9811673D01*
X7586673Y-9990302D01*
X7535000Y-10115052D01*
X7535000Y-9322440D01*
X7825000Y-9322440D01*
X8072765Y-9273157D01*
X8282809Y-9132809D01*
X8423157Y-8922765D01*
X8472440Y-8675000D01*
X8472440Y-6650534D01*
X8646537Y-6615904D01*
X8777560Y-6528357D01*
X8777560Y-8675000D01*
G36*
X8777560Y-3175000D02*
X8826843Y-3422765D01*
X8967191Y-3632809D01*
X9177235Y-3773157D01*
X9402712Y-3818007D01*
X9202071Y-3952071D01*
X9159671Y-4015527D01*
X8979810Y-4195389D01*
X8789603Y-4005182D01*
X8390820Y-3840000D01*
X7959180Y-3840000D01*
X7560397Y-4005182D01*
X7255182Y-4310397D01*
X7090000Y-4709180D01*
X7090000Y-4997986D01*
X7049852Y-4990000D01*
X7049847Y-4990000D01*
X6975000Y-4975112D01*
X6900153Y-4990000D01*
X4860000Y-4990000D01*
X4860000Y-4709180D01*
X4694818Y-4310397D01*
X4389603Y-4005182D01*
X3990820Y-3840000D01*
X3559180Y-3840000D01*
X3160397Y-4005182D01*
X2855182Y-4310397D01*
X2690000Y-4709180D01*
X2690000Y-5140820D01*
X2853838Y-5536358D01*
X2797096Y-5593101D01*
X2772765Y-5576843D01*
X2525000Y-5527560D01*
X735000Y-5527560D01*
X735000Y-3822440D01*
X2525000Y-3822440D01*
X2772765Y-3773157D01*
X2982809Y-3632809D01*
X3123157Y-3422765D01*
X3172440Y-3175000D01*
X3172440Y-735000D01*
X8777560Y-735000D01*
X8777560Y-3175000D01*
X8777560Y-3175000D01*
G37*
X8777560Y-3175000D02*
X8826843Y-3422765D01*
X8967191Y-3632809D01*
X9177235Y-3773157D01*
X9402712Y-3818007D01*
X9202071Y-3952071D01*
X9159671Y-4015527D01*
X8979810Y-4195389D01*
X8789603Y-4005182D01*
X8390820Y-3840000D01*
X7959180Y-3840000D01*
X7560397Y-4005182D01*
X7255182Y-4310397D01*
X7090000Y-4709180D01*
X7090000Y-4997986D01*
X7049852Y-4990000D01*
X7049847Y-4990000D01*
X6975000Y-4975112D01*
X6900153Y-4990000D01*
X4860000Y-4990000D01*
X4860000Y-4709180D01*
X4694818Y-4310397D01*
X4389603Y-4005182D01*
X3990820Y-3840000D01*
X3559180Y-3840000D01*
X3160397Y-4005182D01*
X2855182Y-4310397D01*
X2690000Y-4709180D01*
X2690000Y-5140820D01*
X2853838Y-5536358D01*
X2797096Y-5593101D01*
X2772765Y-5576843D01*
X2525000Y-5527560D01*
X735000Y-5527560D01*
X735000Y-3822440D01*
X2525000Y-3822440D01*
X2772765Y-3773157D01*
X2982809Y-3632809D01*
X3123157Y-3422765D01*
X3172440Y-3175000D01*
X3172440Y-735000D01*
X8777560Y-735000D01*
X8777560Y-3175000D01*
G04 #@! TD*
M02*
