M48
;DRILL file {KiCad (5.0.0)} date 09/18/18 20:25:10
;FORMAT={-:-/ absolute / metric / decimal}
FMAT,2
METRIC,TZ
T1C0.400
T2C1.000
T3C0.900
%
G90
G05
M71
T1
X1.5Y-10.75
X4.5Y-10.75
X6.25Y-3.
X6.75Y-17.25
X6.75Y-24.5
X7.5Y-9.75
X8.Y-17.25
X8.5Y-18.5
X9.75Y-17.25
T2
X1.5Y-13.59
X1.5Y-16.13
X1.5Y-18.67
X1.5Y-21.21
X1.5Y-23.75
X13.5Y-1.75
X13.5Y-4.29
X13.5Y-6.83
X13.5Y-9.37
X13.5Y-11.91
X13.5Y-14.45
X13.5Y-16.99
X13.5Y-19.53
X13.5Y-22.07
X13.5Y-24.61
T3
X3.775Y-4.925
X8.175Y-4.925
T0
M30
